<svg xmlns="http://www.w3.org/2000/svg" xmlns:xlink="http://www.w3.org/1999/xlink" viewBox="0 0 635 635"><style><![CDATA[.H{fill:#fff}.I{fill:#3f3d56}.J{fill:#33ad73}.K{fill:#2f2e41}.L{enable-background:new}]]></style><path d="M145.6 226.1l4 2.6c13.9 34.9 21.8 71.9 23.5 109.5a281.93 281.93 0 0 1 .3 13c.1 32.5-4.6 64.8-14 95.8l-1.5 4.9-1.2 3.5-1.3 1.8-.1.1-.5.7-2.2 3h.6l1.6.1h0c-.5 0-1.1 0-1.6-.1h-.6-.5c-22.6-.6-45.7-1.7-66.3-11-21.5-9.7-39.8-30.6-38.9-54.2.1-3.1.6-6.2 1.4-9.1.3-1.2.7-2.5 1.1-3.7 5.2-15.2 18.3-26.5 34.1-29.4s32 3 42.3 15.4c-6.2-24.2-32.7-36.6-56.5-44.1-23.9-7.5-50.7-15.4-62.9-37.2-6.8-12.2-7-26.3-2.5-39.4l.4-1.2C9.8 231.7 21 219 35.6 211.5c27.3-13.5 60.4-8.7 88.4 3.3 7.4 3.2 14.7 7 21.6 11.3h0z" fill="#f2f2f2"/><path d="M67.4 383.1c21.4 2 41.7 10.8 57.7 25.1 13.7 12.4 23.7 28.2 29.2 45.8l.9 3 1.6-3.1 1-2-1.2 3.5-1.3 1.8-.1.1-.5.7-2.2 3h.6l1.6.1h0c-.5 0-1.1 0-1.6-.1h-.6c-.1-.3-.1-.6-.2-.9-11.5-47-55.9-78.4-104.1-73.4.3-1.2.7-2.5 1.1-3.7 6-.5 12.1-.4 18.1.1h0zm71.2-89.7c8.6 6.4 16.2 14.1 22.6 22.8 3.3 4.6 6.2 9.5 8.6 14.7 1.1 2.4 2.2 4.8 3.1 7.3a281.93 281.93 0 0 1 .3 13c-.8-3.3-1.8-6.5-2.9-9.7-.6-1.7-1.2-3.4-2-5.1-7.9-18.9-22.1-33.8-38.9-45.1-18-12.1-38.3-21.2-58.9-28-21.1-7-42.9-11.3-65.1-13a2.05 2.05 0 0 1-1.8-2c0-.4.1-.9.4-1.2s.8-.5 1.2-.4l8.2.7c22.7 2.3 45 7.5 66.4 15.3 20.8 7.6 41.3 17.3 58.8 30.7h0z" class="H"/><circle cx="26.3" cy="181.4" r="7.6" fill="#f2f2f2"/><path d="M147.8 251.4h344v293h-344v-293z" class="H"/><path d="M492.8 545.4h-346v-295h346v295zm-344-2h342v-291h-342v291z" class="I"/><g class="J"><path d="M276.8 308.4h86v236h-86v-236z"/><path d="M276.8 308.4h86v236h-86v-236z"/></g><path d="M148.8 272.9v47.5l343 22-1-58.7-342-10.8h0z" opacity=".2" class="L"/><path d="M127.8 224.4h384v84h-384v-84z" class="H"/><path d="M512.8 309.4h-386v-86h386v86zm-384-2h382v-82h-382v82z" class="I"/><g class="J"><path d="M276.8 216.4h86v91h-86v-91z"/><path d="M310.6 137c22.7 33.7 1.3 87.8 1.3 87.8s-58.2-.4-80.9-34.1-1.3-87.8-1.3-87.8 58.2.5 80.9 34.1z"/><path d="M321 137c-22.7 33.7-1.3 87.8-1.3 87.8s58.2-.4 80.9-34.1 1.3-87.8 1.3-87.8-58.2.5-80.9 34.1z"/></g><g class="I"><circle cx="259.8" cy="153.4" r="9"/><circle cx="313.8" cy="244.4" r="9"/><circle cx="313.8" cy="441.4" r="9"/><circle cx="283.8" cy="186.4" r="6"/><circle cx="373.8" cy="135.4" r="6"/><circle cx="334.8" cy="276.4" r="6"/><circle cx="298.8" cy="354.4" r="6"/><circle cx="329.8" cy="381.4" r="6"/><circle cx="322.8" cy="494.4" r="6"/></g><path d="M440,388.9h183v155.9H440V388.9z" class="H"/><path d="M623.6 545.4H439.5v-157h184.1v157zm-183.1-1.1h182V389.5h-182v154.8z" class="I"/><g class="J"><path d="M508.6 419.3h45.8v125.6h-45.8V419.3z"/><path d="M508.6 419.3h45.8v125.6h-45.8V419.3z"/></g><path d="M440.5 400.4v25.3L623 437.4l-.5-31.2-182-5.8z" opacity=".2" class="L"/><path d="M429.4,374.6h204.3v44.7H429.4V374.6z" class="H"/><path d="M634.2 419.8H428.8V374h205.4v45.8zm-204.3-1.1h203.3v-43.6H429.9v43.6z" class="I"/><g class="J"><path d="M508.6 370.3h45.8v48.4h-45.8v-48.4z"/><path d="M526.6 328.1c12.1 17.9.7 46.7.7 46.7s-31-.2-43-18.1-.7-46.7-.7-46.7 30.9.2 43 18.1h0z"/><path d="M532.2 328.1c-12.1 17.9-.7 46.7-.7 46.7s31-.2 43-18.1.7-46.7.7-46.7-31 .2-43 18.1h0z"/></g><g class="I"><circle cx="499.6" cy="336.8" r="4.8"/><circle cx="528.3" cy="385.2" r="4.8"/><circle cx="528.3" cy="490" r="4.8"/><circle cx="512.4" cy="354.4" r="3.2"/><circle cx="560.3" cy="327.2" r="3.2"/><circle cx="539.5" cy="402.2" r="3.2"/><circle cx="520.3" cy="443.7" r="3.2"/><circle cx="536.8" cy="458.1" r="3.2"/><circle cx="533.1" cy="518.2" r="3.2"/></g><g class="K"><ellipse transform="matrix(.4285 -.9035 .9035 .4285 -254.1027 525.8331)" cx="288.6" cy="463.8" rx="6.8" ry="21.5"/><ellipse transform="matrix(.7667 -.642 .642 .7667 -226.0376 360.4315)" cx="382.9" cy="491.3" rx="6.8" ry="21.5"/><circle cx="337.1" cy="483.8" r="43.1"/><path d="M342.3 517.6h13.1V541h-13.1v-23.4zm-26.2 0h13.1V541h-13.1v-23.4z"/><ellipse cx="344.5" cy="541.3" rx="10.9" ry="4.1"/><ellipse cx="318.3" cy="540.7" rx="10.9" ry="4.1"/></g><path d="M323.6 429.6c3.8-15.5 20.8-24.6 37.9-20.4s27.8 20.2 24 35.7-16.6 15.5-33.7 11.3-32-11.1-28.2-26.6h0z" fill="#e6e6e6"/><circle cx="330.7" cy="474.7" r="14.4" class="H"/><circle cx="324.8" cy="469.5" r="4.8" class="I"/><use xlink:href="#B" class="H"/><g class="K"><ellipse transform="matrix(.9243 -.3818 .3818 .9243 -26.5418 172.5613)" cx="421.6" cy="153.2" rx="21.5" ry="6.8"/><ellipse transform="matrix(.7667 -.642 .642 .7667 9.5276 371.4904)" cx="515.9" cy="172.6" rx="6.8" ry="21.5"/><circle cx="470.1" cy="165.2" r="43.1"/><path d="M475.3 199h13.1v23.4h-13.1V199zm-26.2 0h13.1v23.4h-13.1V199z"/><ellipse cx="477.5" cy="222.7" rx="10.9" ry="4.1"/><ellipse cx="451.3" cy="222.1" rx="10.9" ry="4.1"/></g><path d="M456.6 111c3.8-15.5 20.8-24.6 37.9-20.4s27.8 20.2 24 35.7-16.6 15.5-33.7 11.3-32-11.1-28.2-26.6h0z" class="J"/><circle cx="463.7" cy="156.1" r="14.4" class="H"/><circle cx="457.8" cy="157.9" r="4.8" class="I"/><use xlink:href="#B" x="133" y="-318.6" class="H"/><g class="K"><circle cx="101.7" cy="483.8" r="43.1"/><path d="M82 517.6h13.1V541H82v-23.4zm26.2 0h13.1V541h-13.1v-23.4z"/><ellipse cx="92.9" cy="541.3" rx="10.9" ry="4.1"/><ellipse cx="119.1" cy="540.7" rx="10.9" ry="4.1"/></g><path d="M59.9 443.7c-3.5-15.6 7.6-31.3 24.8-35.1s33.9 5.7 37.4 21.2-7.9 21.3-25.1 25.2-33.6 4.3-37.1-11.3h0z" class="J"/><g class="K"><ellipse transform="matrix(.7068 -.7074 .7074 .7068 -283.2952 235.746)" cx="142.8" cy="459.7" rx="23.9" ry="7.5"/><ellipse transform="matrix(.7074 -.7068 .7068 .7074 -312.37 170.7683)" cx="50.1" cy="462.7" rx="7.5" ry="23.9"/></g><circle cx="99.9" cy="477.7" r="14.7" class="H"/><circle cx="99.9" cy="477.7" r="4.9" class="I"/><use xlink:href="#B" x="-228.2" y="0.3" class="H"/><defs ><path id="B" d="M339.7 504.6c.9 5.2-2.5 10.2-7.7 11.1s-10.2-2.5-11.1-7.7h0 0c-.9-5.2 3.1-7 8.3-8s9.6-.6 10.5 4.6h0z"/></defs></svg>