<svg xmlns="http://www.w3.org/2000/svg" xmlns:xlink="http://www.w3.org/1999/xlink" viewBox="0 0 940 940"><style><![CDATA[.I{fill:#2f2e41}.J{fill:#9e616a}.K{fill:#33ad73}.L{fill:#e4e4e4}.M{fill:#ffb6b6}.N{fill:#3f3d56}]]></style><g fill="#f0f0f0"><ellipse cx="564.3" cy="546.3" rx="135" ry="7"/><ellipse cx="147.3" cy="691.3" rx="45" ry="7"/></g><g fill="#e6e6e6"><path d="M584.2 256.9l.5-5.1 98.5 10-.5 5.1-98.5-10z"/><circle cx="557.5" cy="251.2" r="9.5"/></g><g class="L"><path d="M584.2 284.9l.5-5.1 98.5 10-.5 5.1-98.5-10z"/><circle cx="557.5" cy="279.2" r="9.5"/></g><g class="K"><path d="M584.2 312.9l.5-5.1 98.5 10-.5 5.1-98.5-10z"/><circle cx="557.5" cy="307.2" r="9.5"/></g><path d="M20 408.5l54.3-41.2-.4 80.3-51.2 42.3-2.7-81.4h0z" class="L"/><path d="M257 258.4l105.7-14.9 1.6 92.1-106.4 17.6-.9-94.8h0zm613.3 156.8v81.4l52.6 50.5 2.5-82.5-55.1-49.4zm.4-73.1v12l36.6 29.8 1.7-10.3-38.3-31.5z" class="K"/><path d="M871.2 362.7l-.6 12 69.3 65.2-1.1-13.7-67.6-63.5zm-.5 22.3v11.4l69.3 66.4v-14.9L870.7 385z" fill="#e6e6e6"/><path d="M149.9 682.9h-5.5l-2.6-21.2h8.1v21.2z" class="J"/><path d="M151.3 688.2h-17.7v-.2c0-3.8 3.1-6.9 6.9-6.9h0 10.8v7.1z" class="I"/><path d="M169.4 677.5l-5.1 2.1-10.5-18.6 7.5-3.1 8.1 19.6z" class="J"/><path d="M172.7 681.9l-16.4 6.8-.1-.2c-1.4-3.5.2-7.5 3.7-9h0l10-4.1 2.8 6.5zm-19.1-158.2s20.4 9.7 6.8 53.9l-1 35-6.7 64.3-11-.7-4.9-61.9-16.2-51.1 3.2-24.7 29.8-14.8z" class="I"/><path d="M122.5 545l1.7-32.1c-11.3-18.9.3-29.7 1.2-30.5l10.3-15.1 9-2.5c3.6-1 7.4-.2 10.4 2 3 2.3 4.7 5.8 4.6 9.5l-.4 52.6-36.8 16.1z" class="K"/><path d="M143.1 623.6l11.3 47.1 13-5.3-17.6-42.6-6.7.8h0z" class="I"/><path d="M125.8 561.6c2.9-1.2 4.3-4.6 3-7.5-.1-.3-.3-.6-.5-.9l11.5-16.3-9.6-.5-10.2 15.4c-2.5 1.9-3.1 5.5-1.2 8 1.7 2.1 4.5 2.9 7 1.8z" class="J"/><path d="M129.8 483l5 35.5-14.2 26.8 11.9 7.4 20.5-30.3-8.6-42.9-14.6 3.5z" class="K"/><circle cx="140.2" cy="443.7" r="15.2" class="J"/><path d="M163.1 500.3c.6-8.5 4.1-16.4 7-24.5s5.1-16.7 2.9-25a40.81 40.81 0 0 0-5.9-11.8c-4.7-6.9-10.8-13.3-18.6-16.2s-17.7-1.5-22.9 5.1c-1.9 2.3-2.9 5.2-2.9 8.2.1 3 1.6 5.8 4.1 7.4 1.4.9 3.1 1.3 4.4 2.3s2 3.2.8 4.4l.5.2c4.2.9 6.6 5.7 6.6 10.1s-1.8 8.5-2.9 12.7-1.4 9 1.1 12.6c2.5 3.5 7.4 5.1 9.2 9 2.5 5.3-2 11.4-1.5 17.3.5 5.6 5.8 9.9 11.3 11.1s11.3.1 16.8-1.1c-7.4-3.8-10.6-13.3-10-21.8h0z" class="I"/><path d="M514.7 422.4l.7-24.7-3.3-22.9-4.9.3-4.1 24.1 4.6 25.9c-1.8 2.5-1.8 5.9.1 8.4s5.2 3.4 8.1 2.2 4.7-4 4.4-7.1c-.3-3-2.6-5.6-5.6-6.2h0zm-.6 57.9l-13.8 58.5 10.4.7 19.9-56.6-16.5-2.6h0zm24.6-3.8l19.1 57 9.2-4.9-14.6-57.3-13.7 5.2h0z" class="J"/><path d="M513.3 427.4s-6.6 7.3 4.8 21.4l-14.8 77.5 11 4 20-52 18 45 14-6-19.1-68.5 2.1-17.5-5.3-4.9-30.7 1z" class="L"/><g class="N"><path d="M527.1 348.5s-20 7.8-18 19.8l4.9 47.4-5.1 16.5s33.8 5.4 40-.7l1.2-52.2 2.2-20.6-10.7-4.3-2.7-4-11.8-1.9z"/><path d="M512.1 362.4l-7.3 16.4 10.9 4.2c0 0-3.6-20.6-3.6-20.6z"/></g><path d="M566.9 429.3l-8.8-47-14-1.2 3.9 23.6 9.5 26.7a7.1 7.1 0 0 0 0 7.9c1.6 2.4 4.5 3.5 7.3 2.9s4.9-2.9 5.4-5.8-.8-5.7-3.3-7.1h0z" class="J"/><path d="M536.3 364.4l8.1 22.9 15.6-2.1s3.4-21.2-7.8-26.6l-15.9 5.8z" class="N"/><path d="M547.3 331c-.4 19.6-30.7 16.3-26.6-3 3.1-15.4 27-12.7 26.6 3z" class="J"/><path d="M539.9 312.9c-9.5 1.6-24.2-2.2-23.9 12.7-1 1.5-2 3-1.4 4.9 3.3 4.1 5.1 10.4 9.5 13.3 3.9 0 9 .5 11.6-2.9 1.1-2.8-.9-6.2.8-8.8 2.2-.7 4.3 2.1 5.2-1.9-.2-2 .6-3.9 2.2-5.1 3.5-4 1.2-11.2-4-12.2h0z" class="N"/><path d="M497.6 537.3H514h0c5.8 0 10.4 4.7 10.4 10.4v.3h-26.8v-10.7zm56.1-7.1l16-3.4h0c5.6-1.2 11.2 2.4 12.4 8l.1.3-26.2 5.6-2.3-10.5z" class="I"/><path d="M621.7 541.4h5.3l2.5-20.4h-7.8v20.4z" class="M"/><path d="M620.3 539.6h10.4 0c3.7 0 6.6 3 6.6 6.6h0v.2h-17v-6.8z" class="I"/><path d="M594.7 541.4h5.3l2.5-20.4h-7.8v20.4z" class="M"/><path d="M593.3 539.6h10.4 0c3.7 0 6.6 3 6.6 6.6h0v.2h-17v-6.8z" class="I"/><path d="M656.3 314.3a6.02 6.02 0 0 0-6-6 6.02 6.02 0 0 0-6 6c0 .8.2 1.6.5 2.3l-12.1 19.2-7.6 15.2 6.2 5.5 4.8-5.1 15.7-31.4c2.7-.6 4.5-3 4.5-5.7h0zm-63 63l-11.9-1.8-2.8 21.5-15.4 33.2c-2.8 1.8-3.7 5.5-1.9 8.3s5.5 3.7 8.3 1.9 3.7-5.5 1.9-8.3l16.1-29.2 5.7-25.6z" class="M"/><path d="M599.9 413.2s-10.5 9.7-9.1 34l2.9 37.6-.7 52.4 10.7-.8 9.4-87.8 9 36-3.2 48 10.4.2 10.9-54.2-2.6-40.2-4.3-25.2h-33.4z" class="I"/><g class="L"><path d="M611.1 356.5l-25 7 12.7 38.1-1.9 14.6 38.5.3-8.9-28.2s5-10.3-.7-17.5l-14.7-14.3z"/><path d="M608.1 362.5l3-6s-.1-1.5 7-2.3l8.3-8.2 7.6 7.5-12.8 18.9-13.1-9.9zm-12 6s-9-10-14-5-2.4 20.9-2.4 20.9l15.6 2.4.8-18.3z"/></g><path d="M600.7 330.1c15.3.1 15.3 23.4 0 23.4-15.3-.1-15.3-23.4 0-23.4z" class="M"/><path d="M602.4 341c2.1 1.2 4.2 2.5 6.6 2.7s5.1-.7 6.1-2.9c.3-.8.5-1.6.5-2.4.2-4.2-1.2-8.3-4-11.4s-6.9-4.8-11.1-4.7c-4 .2-7.6 2-11.1 3.9-3.2 1.7-6.6 3.5-8.4 6.7-2.6 4.7-.7 10.5-.2 15.9.7 8.1-1.9 16.1-7.2 22.3l21.8 2.1c2.6.4 5.3.4 8-.1 4.6-1 8.2-4.5 9.5-9s-.1-9.4-3.4-12.6c-3.1-3-8.1-5.1-8.2-9.4" class="I"/><path d="M.1 393.8L80 335.3l-.6 5-79 59-.3-5.5z" class="K"/><g fill="#f0f0f0"><path d="M417 664.8c22-.1 22 4.8 0 4.7-22 0-22-4.8 0-4.7zm-321-2c22-.1 22 4.8 0 4.7-22 0-22-4.8 0-4.7zm616-85c22-.1 22 4.8 0 4.7-22 0-22-4.8 0-4.7z"/><use xlink:href="#B"/><path d="M708.8 579.7c.3-.2.6-.5.9-.7l-.7.2-.2.5z"/><use xlink:href="#C"/><use xlink:href="#B" x="-293" y="87"/><path d="M415.8 666.7c.3-.2.6-.5.9-.7l-.7.2-.2.5z"/><use xlink:href="#C" x="-293" y="87"/><use xlink:href="#B" x="-614" y="85"/><path d="M94.8 664.7c.3-.2.6-.5.9-.7l-.7.2-.2.5z"/><use xlink:href="#C" x="-614" y="85"/></g><defs ><path id="B" d="M710.3 574.2c0-2.1-1.5-4.5-3.6-4.5-1.8.1-3.2 1.4-3.5 3.2-.2 1.7.3 3.4 1.4 4.8 1.1 1.3 2.4 2.4 3.8 3.4l.4-1.4c-.3.2-.5.3-.8.4 1.1-1.8 2.2-3.8 2.3-5.9h0z"/><path id="C" d="M724.8 563c-2-1.6-4.7-2-7.1-1.1s-4.2 2.9-5 5.3c-.8 2.3-.6 4.8-1 7.2-.2 1.7-.9 3.3-2.1 4.6 3.8-.8 7.6-2 11.1-3.7 2.6-1.2 5.2-2.9 6.1-5.6.8-2.5 0-5.1-2-6.7h0z"/></defs></svg>