<?xml version="1.0" encoding="utf-8"?>
<!-- Generator: Adobe Illustrator 21.0.0, SVG Export Plug-In . SVG Version: 6.00 Build 0)  -->
<svg version="1.1" id="Arrow-circle-left-bold_1_" xmlns="http://www.w3.org/2000/svg" xmlns:xlink="http://www.w3.org/1999/xlink"
	 x="0px" y="0px" viewBox="0 0 143 143" style="enable-background:new 0 0 143 143;" xml:space="preserve">
<path d="M93.3,22.8c-3.6-1.5-7.7,0.2-9.2,3.8c-1.5,3.6,0.2,7.7,3.8,9.2c14.9,6.2,24.6,20.8,24.6,37c0,22.1-18,40.1-40.1,40.1
	s-40.1-18-40.1-40.1c0-9.4,3.4-18.5,9.3-25.7l-0.3,7.7c-0.2,3.9,2.9,7.1,6.7,7.3c0.1,0,0.2,0,0.3,0c3.7,0,6.8-3,7-6.7l1-25.5
	c0.1-2-0.7-4-2.2-5.4c-1.5-1.4-3.5-2.1-5.5-1.9l-25.3,2.6c-3.8,0.4-6.6,3.8-6.2,7.7c0.4,3.8,3.8,6.6,7.7,6.2l5.8-0.6
	c-7.8,9.6-12.2,21.7-12.2,34.2c0,29.8,24.3,54.1,54.1,54.1s54.1-24.3,54.1-54.1C126.5,50.9,113.5,31.3,93.3,22.8z"/>
</svg>
