<?xml version="1.0" encoding="utf-8"?>
<!-- Generator: Adobe Illustrator 21.0.0, SVG Export Plug-In . SVG Version: 6.00 Build 0)  -->
<svg version="1.1" id="arrow-long-left" xmlns="http://www.w3.org/2000/svg" xmlns:xlink="http://www.w3.org/1999/xlink" x="0px"
	 y="0px" viewBox="0 0 143 143" style="enable-background:new 0 0 143 143;" xml:space="preserve">
<path d="M129.5,70H22.9l30.6-26.3c1.5-1.3,1.6-3.5,0.4-4.9c-1.3-1.5-3.5-1.6-4.9-0.4L11.3,70.7c-0.8,0.7-1.2,1.6-1.2,2.7
	c0,1,0.4,2,1.2,2.7L49,108.5c0.7,0.6,1.5,0.8,2.3,0.8c1,0,2-0.4,2.7-1.2c1.3-1.5,1.1-3.7-0.4-4.9L23.2,77h106.3
	c1.9,0,3.5-1.6,3.5-3.5S131.4,70,129.5,70z"/>
</svg>
