<?xml version="1.0" encoding="utf-8"?>
<!-- Generator: Adobe Illustrator 21.0.0, SVG Export Plug-In . SVG Version: 6.00 Build 0)  -->
<svg version="1.1" id="arrow-long-top" xmlns="http://www.w3.org/2000/svg" xmlns:xlink="http://www.w3.org/1999/xlink" x="0px"
	 y="0px" viewBox="0 0 143 143" style="enable-background:new 0 0 143 143;" xml:space="preserve">
<path d="M106.5,48.5L74.3,10.9c-0.7-0.8-1.6-1.2-2.7-1.2c-1,0-2,0.4-2.7,1.2L36.5,48.5c-1.3,1.5-1.1,3.7,0.4,4.9
	c1.5,1.3,3.7,1.1,4.9-0.4L68,22.7V129c0,1.9,1.6,3.5,3.5,3.5S75,131,75,129V22.4L101.3,53c0.7,0.8,1.7,1.2,2.7,1.2
	c0.8,0,1.6-0.3,2.3-0.8C107.6,52.2,107.8,50,106.5,48.5z"/>
</svg>
