<?xml version="1.0" encoding="utf-8"?>
<!-- Generator: Adobe Illustrator 21.0.0, SVG Export Plug-In . SVG Version: 6.00 Build 0)  -->
<svg version="1.1" id="ArrowRoundRight" xmlns="http://www.w3.org/2000/svg" xmlns:xlink="http://www.w3.org/1999/xlink" x="0px"
	 y="0px" viewBox="0 0 143 143" style="enable-background:new 0 0 143 143;" xml:space="preserve">
<style type="text/css">
	.st0{fill:#1D1D1B;}
</style>
<path class="st0" d="M121,54.1L81.2,24c-1.5-1.2-3.7-0.9-4.9,0.7c-1.2,1.5-0.9,3.7,0.7,4.9l31.5,23.8c-35.6,0.4-56.3,4.7-68.7,14.3
	c-14.5,11.2-17.5,28.9-17.5,52.2c0,1.9,1.6,3.5,3.5,3.5s3.5-1.6,3.5-3.5c0-44.2,11.1-58.7,79-59.5L77,83.6c-1.6,1.2-1.9,3.3-0.7,4.9
	c0.7,0.9,1.7,1.4,2.8,1.4c0.7,0,1.5-0.2,2.1-0.7L121,59.7c0.9-0.7,1.4-1.7,1.4-2.8C122.4,55.8,121.9,54.8,121,54.1z"/>
</svg>
