<?xml version="1.0" encoding="utf-8"?>
<!-- Generator: Adobe Illustrator 21.0.0, SVG Export Plug-In . SVG Version: 6.00 Build 0)  -->
<svg version="1.1" id="Arrow-circle-right" xmlns="http://www.w3.org/2000/svg" xmlns:xlink="http://www.w3.org/1999/xlink" x="0px"
	 y="0px" viewBox="0 0 143 143" style="enable-background:new 0 0 143 143;" xml:space="preserve">
<path d="M18.6,36.5c0.2,1.9,1.9,3.3,3.8,3.1l13.9-1.4c-9.2,9.5-14.5,22.2-14.5,35.5c0,27.9,22.7,50.6,50.6,50.6S123,101.6,123,73.7
	s-22.7-50.6-50.6-50.6c-1.9,0-3.5,1.6-3.5,3.5s1.6,3.5,3.5,3.5c24,0,43.6,19.6,43.6,43.6s-19.6,43.6-43.6,43.6S28.8,97.7,28.8,73.7
	c0-12.4,5.4-24.3,14.6-32.6L42.8,59c0,1.9,1.5,3.5,3.4,3.6h0.1c1.9,0,3.4-1.5,3.5-3.4l0.9-25.5c0-1-0.4-2-1.1-2.7
	c-0.7-0.7-1.7-1-2.7-0.9l-25.2,2.6C19.8,32.9,18.4,34.6,18.6,36.5z"/>
</svg>
