<?xml version="1.0" encoding="utf-8"?>
<!-- Generator: Adobe Illustrator 21.0.0, SVG Export Plug-In . SVG Version: 6.00 Build 0)  -->
<svg version="1.1" id="arrow-long-right" xmlns="http://www.w3.org/2000/svg" xmlns:xlink="http://www.w3.org/1999/xlink" x="0px"
	 y="0px" viewBox="0 0 143 143" style="enable-background:new 0 0 143 143;" xml:space="preserve">
<path d="M132.4,71L94.7,38.5c-1.5-1.3-3.7-1.1-4.9,0.4c-1.3,1.5-1.1,3.7,0.4,4.9L120.5,70H14.2c-1.9,0-3.5,1.6-3.5,3.5
	s1.6,3.5,3.5,3.5h106.6l-30.6,26.3c-1.5,1.3-1.6,3.5-0.4,4.9c0.7,0.8,1.7,1.2,2.7,1.2c0.8,0,1.6-0.3,2.3-0.8l37.7-32.3
	c0.8-0.7,1.2-1.6,1.2-2.7C133.6,72.6,133.2,71.6,132.4,71z"/>
</svg>
