<?xml version="1.0" encoding="utf-8"?>
<!-- Generator: Adobe Illustrator 21.0.0, SVG Export Plug-In . SVG Version: 6.00 Build 0)  -->
<svg version="1.1" id="ArrowRoundBottomRight" xmlns="http://www.w3.org/2000/svg" xmlns:xlink="http://www.w3.org/1999/xlink"
	 x="0px" y="0px" viewBox="0 0 143 143" style="enable-background:new 0 0 143 143;" xml:space="preserve">
<style type="text/css">
	.st0{fill:#1D1D1B;}
</style>
<path class="st0" d="M120.5,87.1L80.7,57.5c-1.6-1.2-3.7-0.8-4.9,0.7c-1.2,1.6-0.8,3.7,0.7,4.9l31.1,23.2c-67.9-0.7-79-15.3-79-59.5
	c0-1.9-1.6-3.5-3.5-3.5s-3.5,1.6-3.5,3.5c0,23.2,3,41,17.5,52.2c12.5,9.6,33.2,13.9,69,14.3l-31.7,23.9c-1.5,1.2-1.8,3.4-0.7,4.9
	c0.7,0.9,1.7,1.4,2.8,1.4c0.7,0,1.5-0.2,2.1-0.7l39.8-30.1c0.9-0.7,1.4-1.7,1.4-2.8C121.9,88.8,121.4,87.7,120.5,87.1z"/>
</svg>
