<?xml version="1.0" encoding="utf-8"?>
<!-- Generator: Adobe Illustrator 21.0.0, SVG Export Plug-In . SVG Version: 6.00 Build 0)  -->
<svg version="1.1" id="ArrowRoundTopLeft" xmlns="http://www.w3.org/2000/svg" xmlns:xlink="http://www.w3.org/1999/xlink" x="0px"
	 y="0px" viewBox="0 0 143 143" style="enable-background:new 0 0 143 143;" xml:space="preserve">
<style type="text/css">
	.st0{fill:#1D1D1B;}
</style>
<path class="st0" d="M101.9,67.7c-12.4-9.6-33.2-13.9-68.8-14.3l31.4-23.8c1.5-1.2,1.8-3.4,0.7-4.9c-1.2-1.5-3.4-1.8-4.9-0.7
	L20.7,54.1c-0.9,0.7-1.4,1.7-1.4,2.8c0,1.1,0.5,2.1,1.4,2.8l39.7,29.5c0.6,0.5,1.4,0.7,2.1,0.7c1.1,0,2.1-0.5,2.8-1.4
	c1.2-1.6,0.8-3.7-0.7-4.9L33.4,60.4c67.9,0.7,79,15.3,79,59.5c0,1.9,1.6,3.5,3.5,3.5s3.5-1.6,3.5-3.5
	C119.4,96.7,116.4,78.9,101.9,67.7z"/>
</svg>
