<?xml version="1.0" encoding="utf-8"?>
<!-- Generator: Adobe Illustrator 21.0.0, SVG Export Plug-In . SVG Version: 6.00 Build 0)  -->
<svg version="1.1" id="Calque_1" xmlns="http://www.w3.org/2000/svg" xmlns:xlink="http://www.w3.org/1999/xlink" x="0px" y="0px"
	 viewBox="0 0 143 143" style="enable-background:new 0 0 143 143;" xml:space="preserve">
<g id="ArrowLongBottom-SM">
	<path d="M106.2,89.3c-1.5-1.3-3.7-1.1-4.9,0.4L75,120.1V13.8c0-1.9-1.6-3.5-3.5-3.5S68,11.8,68,13.8v106.6L41.8,89.7
		c-1.3-1.5-3.5-1.6-4.9-0.4c-1.5,1.3-1.6,3.5-0.4,4.9l32.3,37.7c0.7,0.8,1.6,1.2,2.7,1.2l0,0c1,0,2-0.4,2.7-1.2l32.5-37.7
		C107.8,92.8,107.6,90.6,106.2,89.3z"/>
</g>
</svg>
