<?xml version="1.0" encoding="utf-8"?>
<!-- Generator: Adobe Illustrator 21.0.0, SVG Export Plug-In . SVG Version: 6.00 Build 0)  -->
<svg version="1.1" id="arrow-circle-right-bold" xmlns="http://www.w3.org/2000/svg" xmlns:xlink="http://www.w3.org/1999/xlink"
	 x="0px" y="0px" viewBox="0 0 143 143" style="enable-background:new 0 0 143 143;" xml:space="preserve">
<path d="M125.2,32.9c0.4-3.8-2.4-7.3-6.2-7.7l-25.2-2.6c-2-0.2-4,0.5-5.5,1.9s-2.3,3.4-2.2,5.4l1,25.5c0.1,3.8,3.3,6.7,7,6.7
	c0.1,0,0.2,0,0.3,0c3.9-0.2,6.9-3.4,6.7-7.3l-0.3-7.7c5.9,7.2,9.3,16.3,9.3,25.7c0,22.1-18,40.1-40.2,40.1
	c-22.1,0-40.1-18-40.1-40.1c0-16.3,9.7-30.8,24.6-37c3.6-1.5,5.3-5.6,3.8-9.2s-5.6-5.3-9.2-3.8c-20.2,8.4-33.2,28-33.2,50
	c0,29.8,24.3,54.1,54.1,54.1c29.9,0,54.2-24.3,54.2-54.1c0-12.5-4.4-24.6-12.2-34.2l5.7,0.6C121.3,39.6,124.8,36.8,125.2,32.9z"/>
</svg>
