<?xml version="1.0" encoding="utf-8"?>
<!-- Generator: Adobe Illustrator 21.0.0, SVG Export Plug-In . SVG Version: 6.00 Build 0)  -->
<svg version="1.1" id="Arrow-circle-right" xmlns="http://www.w3.org/2000/svg" xmlns:xlink="http://www.w3.org/1999/xlink" x="0px"
	 y="0px" viewBox="0 0 143 143" style="enable-background:new 0 0 143 143;" xml:space="preserve">
<path d="M118.9,32.7l-25.2-2.6c-1-0.1-2,0.2-2.7,0.9c-0.7,0.7-1.1,1.7-1.1,2.7l0.9,25.5c0.1,1.9,1.6,3.4,3.5,3.4c0,0,0.1,0,0.1,0
	c1.9-0.1,3.4-1.7,3.4-3.6l-0.6-17.9c9.2,8.3,14.6,20.2,14.6,32.6c0,24-19.6,43.6-43.6,43.6c-24,0-43.6-19.6-43.6-43.6
	s19.6-43.6,43.6-43.6c1.9,0,3.5-1.6,3.5-3.5s-1.6-3.5-3.5-3.5c-27.9,0-50.6,22.7-50.6,50.6c0,27.9,22.7,50.6,50.6,50.6
	s50.6-22.7,50.6-50.6c0-13.3-5.3-26-14.5-35.5l13.9,1.4c1.9,0.2,3.6-1.2,3.8-3.1C122.2,34.6,120.8,32.9,118.9,32.7z"/>
</svg>
