<?xml version="1.0" encoding="utf-8"?>
<!-- Generator: Adobe Illustrator 21.0.0, SVG Export Plug-In . SVG Version: 6.00 Build 0)  -->
<svg version="1.1" id="balloon" xmlns="http://www.w3.org/2000/svg" xmlns:xlink="http://www.w3.org/1999/xlink" x="0px" y="0px"
	 viewBox="0 0 143 143" style="enable-background:new 0 0 143 143;" xml:space="preserve">
<path d="M30.8,130.1c-0.7,0-1.3-0.2-1.9-0.6c-1.1-0.7-1.7-1.9-1.6-3.1l1.3-20.9C17.2,95.9,11,83.3,11,69.7
	c0-27.9,27.2-50.6,60.5-50.6S132,41.8,132,69.7s-27.2,50.6-60.5,50.6c-5.7,0-11.4-0.7-17-2l-22.1,11.4
	C31.9,130,31.4,130.1,30.8,130.1z M71.5,26.1C42,26.1,18,45.7,18,69.7c0,11.9,5.8,23.1,16.4,31.4c0.9,0.7,1.4,1.8,1.3,3l-1,16.6
	l17.8-9.2c0.8-0.4,1.7-0.5,2.5-0.3c5.4,1.4,10.9,2.1,16.5,2.1c29.5,0,53.5-19.6,53.5-43.6S101,26.1,71.5,26.1z"/>
</svg>
