<?xml version="1.0" encoding="utf-8"?>
<!-- Generator: Adobe Illustrator 21.0.0, SVG Export Plug-In . SVG Version: 6.00 Build 0)  -->
<svg version="1.1" id="ballon-bold" xmlns="http://www.w3.org/2000/svg" xmlns:xlink="http://www.w3.org/1999/xlink" x="0px"
	 y="0px" viewBox="0 0 143 143" style="enable-background:new 0 0 143 143;" xml:space="preserve">
<path d="M34.8,128.5c-1.3,0-2.6-0.4-3.8-1.1c-1.9-1.2-3.1-3.2-3.2-5.4c-0.6-8-1.6-17.7-2.2-21.2C17.5,92.2,13,81.3,13,70.2
	c0-27.3,26.2-49.5,58.5-49.5S130,42.9,130,70.2s-26.2,49.5-58.5,49.5c-2.8,0-5.7-0.2-8.5-0.5c-3.4,0.8-15.7,5.1-25.8,8.9
	C36.5,128.4,35.6,128.5,34.8,128.5z M71.5,34.7C47,34.7,27,50.6,27,70.2c0,8.1,3.3,15.7,9.7,22.1c1.6,1.6,2.8,2.8,4.3,19.5
	c19.4-7.1,21.5-6.8,23.1-6.6c2.5,0.3,5,0.5,7.4,0.5c24.5,0,44.5-15.9,44.5-35.5S96,34.7,71.5,34.7z M26.8,102.1L26.8,102.1
	L26.8,102.1z"/>
</svg>
