<?xml version="1.0" encoding="utf-8"?>
<!-- Generator: Adobe Illustrator 21.0.0, SVG Export Plug-In . SVG Version: 6.00 Build 0)  -->
<svg version="1.1" id="bank" xmlns="http://www.w3.org/2000/svg" xmlns:xlink="http://www.w3.org/1999/xlink" x="0px" y="0px"
	 viewBox="0 0 143 143" style="enable-background:new 0 0 143 143;" xml:space="preserve">
<path d="M120,122H23c-1.9,0-3.5-1.6-3.5-3.5v-12.9c0-1.9,1.6-3.5,3.5-3.5h5.6c-0.6-2.8-1.1-6.8-1.1-11.6c0-6.3,1.2-20.5,1.8-27.3H23
	c-1.9,0-3.5-1.6-3.5-3.5v-12c0-1.3,0.7-2.5,1.9-3.1l48.5-25.1c1-0.5,2.2-0.5,3.2,0l48.5,25.1c1.2,0.6,1.9,1.8,1.9,3.1v11.9
	c0,1.9-1.6,3.5-3.5,3.5h-6.3c0.6,7.3,1.8,23,1.8,27.3c0,3.6-0.7,8.2-1.3,11.6h5.8c1.9,0,3.5,1.6,3.5,3.5v13
	C123.5,120.4,121.9,122,120,122z M26.5,115h90v-6h-6.6c-1.1,0-2.1-0.5-2.7-1.3c-0.7-0.8-0.9-1.9-0.7-3c0-0.1,2-8.8,2-14.3
	c0-5.4-2.1-30.3-2.1-30.5c-0.1-1,0.2-1.9,0.9-2.7s1.6-1.1,2.6-1.1h6.6v-6.3l-45-23.3l-45,23.3v6.3h6.6c1,0,1.9,0.4,2.6,1.1
	c0.7,0.7,1,1.7,0.9,2.7c0,0.2-2.1,22.6-2.1,30.5c0,8.5,1.9,13.8,1.9,13.9c0.4,1.1,0.2,2.3-0.4,3.2c-0.6,0.9-1.7,1.5-2.9,1.5h-6.6
	L26.5,115L26.5,115z"/>
<path d="M65.1,109L65.1,109H45.8c-1.1,0-2.1-0.5-2.7-1.3c-0.7-0.8-0.9-1.9-0.7-3c0-0.1,2-8.8,2-14.3c0-5.4-2.1-30.3-2.1-30.5
	c-0.1-1,0.2-1.9,0.9-2.7s1.6-1.1,2.6-1.1h19.3c1,0,1.9,0.4,2.6,1.1c0.7,0.7,1,1.7,0.9,2.7c0,0.3-2.1,25.2-2.1,30.5
	c0,5.4,2,14.3,2.1,14.3c0.2,1,0,2.1-0.7,3C67.2,108.6,66.2,109,65.1,109z M50.1,102h10.7c-0.6-3.3-1.3-8-1.3-11.6
	c0-4.4,1.2-20,1.8-27.3H49.6c0.6,7.3,1.8,23,1.8,27.3C51.4,94,50.7,98.7,50.1,102z"/>
<path d="M77.8,109c-1.1,0-2.1-0.5-2.7-1.3c-0.7-0.8-0.9-1.9-0.7-3c0-0.1,2.1-8.9,2.1-14.3s-2.1-30.3-2.1-30.5
	c-0.1-1,0.2-1.9,0.9-2.7s1.6-1.1,2.6-1.1h19.3c1,0,1.9,0.4,2.6,1.1c0.7,0.7,1,1.7,0.9,2.7c0,0.3-2.1,25.2-2.1,30.5
	c0,5.5,2,14.2,2,14.3c0.2,1,0,2.1-0.7,3c-0.7,0.8-1.7,1.3-2.7,1.3H77.8L77.8,109z M81.6,63.1c0.6,7.3,1.8,23,1.8,27.3
	c0,3.6-0.7,8.3-1.3,11.6h10.7c-0.6-3.3-1.3-7.9-1.3-11.6c0-4.4,1.2-20,1.8-27.3C93.3,63.1,81.6,63.1,81.6,63.1z"/>
</svg>
