<?xml version="1.0" encoding="utf-8"?>
<!-- Generator: Adobe Illustrator 21.0.0, SVG Export Plug-In . SVG Version: 6.00 Build 0)  -->
<svg version="1.1" id="beaker" xmlns="http://www.w3.org/2000/svg" xmlns:xlink="http://www.w3.org/1999/xlink" x="0px" y="0px"
	 viewBox="0 0 143 143" style="enable-background:new 0 0 143 143;" xml:space="preserve">
<path d="M88.2,47.3V26.7h4.6c1.9,0,3.5-1.6,3.5-3.5s-1.6-3.5-3.5-3.5H47.5c-1.9,0-3.5,1.6-3.5,3.5s1.6,3.5,3.5,3.5h5.4v20.6
	C48,54.8,24,92.7,24,108.2c0,14.1,25,19.1,46.5,19.1s46.5-5,46.5-19C117.1,92.7,93,54.8,88.2,47.3z M59.3,50.3
	c0.4-0.6,0.6-1.2,0.6-1.9V26.7h21.3v21.7c0,0.7,0.2,1.3,0.6,1.9c4.6,7,13.5,21.6,20.1,34.8H39.2C45.8,71.8,54.7,57.3,59.3,50.3z
	 M70.5,120.3c-21.8,0-39.5-5.4-39.5-12.1c0-3.8,2-9.7,5-16.4c0.4,0.2,0.9,0.3,1.4,0.3h66.7c0.4,0,0.7-0.1,1-0.2
	c3,6.7,4.9,12.6,4.9,16.3C110,114.9,92.3,120.3,70.5,120.3z"/>
</svg>
