<?xml version="1.0" encoding="utf-8"?>
<!-- Generator: Adobe Illustrator 21.0.0, SVG Export Plug-In . SVG Version: 6.00 Build 0)  -->
<svg version="1.1" id="Calque_1" xmlns="http://www.w3.org/2000/svg" xmlns:xlink="http://www.w3.org/1999/xlink" x="0px" y="0px"
	 viewBox="0 0 143 143" style="enable-background:new 0 0 143 143;" xml:space="preserve">
<g id="Becher-XS">
	<path d="M92.8,43V25.4h1.6c3.9,0,7-3.1,7-7s-3.1-7-7-7H46.3c-3.9,0-7,3.1-7,7s3.1,7,7,7h2.4V43c-7.2,11.1-30.6,48.8-30.6,65.7
		c0,5.9,3.3,14,19.1,19.1c9,2.9,20.9,4.5,33.5,4.5c25.5,0,52.6-6.2,52.6-23.5C123.5,91.9,100,54.2,92.8,43z M61.6,48.9
		c0.7-1.1,1.1-2.5,1.1-3.8V25.4h16v19.7c0,1.4,0.4,2.7,1.1,3.8c5.6,8.6,12.9,20.6,18.8,31.9H42.8C48.7,69.6,56,57.5,61.6,48.9z
		 M70.7,118.2c-25.5,0-38.6-6.7-38.6-9.5c0-3.1,1.6-8,4-13.9h69.3c2.5,5.8,4,10.7,4,13.9C109.4,111.5,96.2,118.2,70.7,118.2z"/>
</g>
</svg>
