<?xml version="1.0" encoding="utf-8"?>
<!-- Generator: Adobe Illustrator 21.0.0, SVG Export Plug-In . SVG Version: 6.00 Build 0)  -->
<svg version="1.1" id="bell-bold" xmlns="http://www.w3.org/2000/svg" xmlns:xlink="http://www.w3.org/1999/xlink" x="0px" y="0px"
	 viewBox="0 0 143 143" style="enable-background:new 0 0 143 143;" xml:space="preserve">
<path d="M121.7,95.9h-8.1V56.8c0-24.6-19.1-44.7-42.5-44.7s-42.5,20-42.5,44.7V96h-7.2c-3.9,0-7,3.1-7,7s3.1,7,7,7H47
	c1.2,12.3,11.5,22,24.1,22s23-9.7,24.2-22h26.5c3.9,0,7-3.1,7-7S125.6,95.9,121.7,95.9z M42.6,56.8c0-16.9,12.8-30.7,28.5-30.7
	s28.5,13.7,28.5,30.7V96h-57V56.8z M71.1,117.9c-4.8,0-8.9-3.4-9.9-8h19.9C80,114.5,75.9,117.9,71.1,117.9z"/>
</svg>
