<?xml version="1.0" encoding="utf-8"?>
<!-- Generator: Adobe Illustrator 21.0.0, SVG Export Plug-In . SVG Version: 6.00 Build 0)  -->
<svg version="1.1" id="bell" xmlns="http://www.w3.org/2000/svg" xmlns:xlink="http://www.w3.org/1999/xlink" x="0px" y="0px"
	 viewBox="0 0 143 143" style="enable-background:new 0 0 143 143;" xml:space="preserve">
<path d="M126,104.9h-12.8V58.7c0-24.3-18.7-44.1-41.7-44.1S29.8,34.4,29.8,58.7v46.2H17.9c-1.9,0-3.5,1.6-3.5,3.5s1.6,3.5,3.5,3.5
	h31.9c1.7,10.5,10.8,18.5,21.7,18.5c11,0,20.1-8,21.8-18.5H126c1.9,0,3.5-1.6,3.5-3.5S128,104.9,126,104.9z M36.8,58.7
	c0-20.4,15.6-37.1,34.7-37.1s34.7,16.6,34.7,37.1v46.2H36.8V58.7z M71.5,123.4c-7.1,0-13-4.9-14.6-11.5h29.2
	C84.6,118.5,78.6,123.4,71.5,123.4z"/>
</svg>
