<?xml version="1.0" encoding="utf-8"?>
<!-- Generator: Adobe Illustrator 21.0.0, SVG Export Plug-In . SVG Version: 6.00 Build 0)  -->
<svg version="1.1" id="Calque_1" xmlns="http://www.w3.org/2000/svg" xmlns:xlink="http://www.w3.org/1999/xlink" x="0px" y="0px"
	 viewBox="0 0 143 143" style="enable-background:new 0 0 143 143;" xml:space="preserve">
<g id="Ampoule-XS">
	<path d="M71,9.2C46.3,9.2,26.2,29.3,26.2,54c0,16.8,9.6,32.3,24.4,39.9v13.9c0,0.4,0,0.8,0.1,1.2l3.4,19.6c0.6,3.4,3.5,5.8,6.9,5.8
		h22.8c3.4,0,6.4-2.5,6.9-5.9l3.2-19.6c0.1-0.4,0.1-0.8,0.1-1.1V92.5c13.4-8,21.9-22.6,21.9-38.4C115.8,29.3,95.7,9.2,71,9.2z
		 M66.9,120.4l-1-5.6h12.8l-0.9,5.6H66.9z M84,81.9c-2.5,1.1-4,3.6-4,6.3v12.6H64.6V89.4c0-2.9-1.8-5.5-4.5-6.5
		C48.2,78.3,40.2,66.8,40.2,54C40.2,37,54,23.2,71,23.2S101.8,37,101.8,54C101.8,65.9,94.8,76.9,84,81.9z"/>
</g>
</svg>
