<?xml version="1.0" encoding="utf-8"?>
<!-- Generator: Adobe Illustrator 21.0.0, SVG Export Plug-In . SVG Version: 6.00 Build 0)  -->
<svg version="1.1" id="Calque_1" xmlns="http://www.w3.org/2000/svg" xmlns:xlink="http://www.w3.org/1999/xlink" x="0px" y="0px"
	 viewBox="0 0 143 143" style="enable-background:new 0 0 143 143;" xml:space="preserve">
<g id="Ampoule-SM">
	<path d="M71,12.7c-22.8,0-41.3,18.5-41.3,41.3c0,16.2,9.7,31.1,24.4,37.7v16.1c0,0.2,0,0.4,0.1,0.6l3.4,19.6
		c0.3,1.7,1.7,2.9,3.4,2.9h22.8c1.7,0,3.2-1.2,3.5-2.9l3.2-19.6c0-0.2,0-0.4,0-0.6V90.4c13.4-7.1,21.9-21.2,21.9-36.4
		C112.3,31.2,93.8,12.7,71,12.7z M63.9,123.9l-2.2-12.6h21.1l-2.1,12.6H63.9z M85.5,85.1c-1.2,0.6-2,1.8-2,3.2v16.1H61.1v-15
		c0-1.5-0.9-2.8-2.3-3.3c-13.3-5-22.2-17.9-22.2-32.1c0-18.9,15.4-34.3,34.3-34.3s34.3,15.4,34.3,34.3
		C105.3,67.3,97.5,79.5,85.5,85.1z"/>
</g>
</svg>
