<?xml version="1.0" encoding="utf-8"?>
<!-- Generator: Adobe Illustrator 21.0.0, SVG Export Plug-In . SVG Version: 6.00 Build 0)  -->
<svg version="1.1" id="car" xmlns="http://www.w3.org/2000/svg" xmlns:xlink="http://www.w3.org/1999/xlink" x="0px" y="0px"
	 viewBox="0 0 143 143" style="enable-background:new 0 0 143 143;" xml:space="preserve">
<style type="text/css">
	.st0{fill:#1D1D1B;}
</style>
<g>
	<path class="st0" d="M89.7,94.5H61.3c-1.9,0-3.5-1.6-3.5-3.5s1.6-3.5,3.5-3.5h28.4c1.9,0,3.5,1.6,3.5,3.5S91.6,94.5,89.7,94.5z"/>
</g>
<g>
	<path class="st0" d="M41.3,103.4c-6.8,0-12.4-5.6-12.4-12.4s5.6-12.4,12.4-12.4S53.7,84.2,53.7,91S48.1,103.4,41.3,103.4z
		 M41.3,85.6c-3,0-5.4,2.4-5.4,5.4s2.4,5.4,5.4,5.4c3,0,5.4-2.4,5.4-5.4S44.3,85.6,41.3,85.6z"/>
</g>
<g>
	<path class="st0" d="M110.4,103.4c-6.8,0-12.4-5.6-12.4-12.4s5.6-12.4,12.4-12.4c6.8,0,12.4,5.6,12.4,12.4S117.2,103.4,110.4,103.4
		z M110.4,85.6c-3,0-5.4,2.4-5.4,5.4s2.4,5.4,5.4,5.4s5.4-2.4,5.4-5.4S113.4,85.6,110.4,85.6z"/>
</g>
<g>
	<path class="st0" d="M21.8,94.5C13.2,94.5,8,89.2,8,80.4c0-8.8,10.8-18.9,28.1-19.8c8-0.4,11.7-4.4,15.3-8.2c1.9-2.1,3.8-4,6.2-5.4
		c10-5.8,42.4-2.1,52.3,4.4c3.8,2.5,22.4,13.9,22.6,14c1,0.6,1.7,1.8,1.7,3v18.9c0,1.9-1.6,3.5-3.5,3.5s-3.5-1.6-3.5-3.5V70.5
		c-4.7-2.9-17.9-11-21.1-13.1c-8.2-5.4-38-8.2-44.9-4.2c-1.5,0.9-2.9,2.4-4.5,4.1c-3.9,4.1-9.3,9.8-20,10.4
		C22.2,68.3,15,76.2,15,80.4c0,5,2,7.1,6.8,7.1c1.9,0,3.5,1.6,3.5,3.5S23.7,94.5,21.8,94.5z"/>
</g>
</svg>
