<?xml version="1.0" encoding="utf-8"?>
<!-- Generator: Adobe Illustrator 21.0.0, SVG Export Plug-In . SVG Version: 6.00 Build 0)  -->
<svg version="1.1" id="cards-bold" xmlns="http://www.w3.org/2000/svg" xmlns:xlink="http://www.w3.org/1999/xlink" x="0px" y="0px"
	 viewBox="0 0 143 143" style="enable-background:new 0 0 143 143;" xml:space="preserve">
<path d="M117.9,115.3H25.1c-8.1,0-14.6-6.7-14.6-15V44.6c0-8.3,6.5-15,14.6-15h92.8c8,0,14.6,6.7,14.6,15v55.6
	c0.1,4-1.4,7.8-4.2,10.7C125.5,113.7,121.8,115.3,117.9,115.3z M25.1,43.6c-0.2,0-0.6,0.4-0.6,1v55.7c0,0.6,0.4,1,0.6,1h92.8
	c0.1,0,0.3-0.1,0.4-0.2c0.2-0.2,0.2-0.4,0.2-0.7c0-0.1,0-0.1,0-0.2V44.6c0-0.6-0.4-1-0.6-1H25.1z"/>
<path d="M49.7,94.8c-1.8,0-3.6-0.7-4.9-2L34.3,82.4c-1.3-1.3-2.1-3.1-2.1-5s0.7-3.6,2.1-5L44.8,62c2.7-2.7,7.2-2.7,9.9,0
	c2.7,2.7,2.7,7.2,0,9.9l-5.5,5.5l5.5,5.5c2.7,2.7,2.8,7.2,0,9.9C53.3,94.1,51.5,94.8,49.7,94.8z"/>
</svg>
