<?xml version="1.0" encoding="utf-8"?>
<!-- Generator: Adobe Illustrator 21.0.0, SVG Export Plug-In . SVG Version: 6.00 Build 0)  -->
<svg version="1.1" id="cards" xmlns="http://www.w3.org/2000/svg" xmlns:xlink="http://www.w3.org/1999/xlink" x="0px" y="0px"
	 viewBox="0 0 143 143" style="enable-background:new 0 0 143 143;" xml:space="preserve">
<style type="text/css">
	.st0{stroke:#34AE75;stroke-width:7;stroke-linecap:round;stroke-linejoin:round;stroke-miterlimit:10;}
</style>
<path d="M103.6,117.9H21.9c-5.6,0-10.2-4.6-10.2-10.2V61c0-5.6,4.6-10.2,10.2-10.2h81.8c5.6,0,10.2,4.6,10.2,10.2v46.8
	c0.1,2.6-1,5.2-2.9,7.1C109,116.8,106.4,117.9,103.6,117.9z M21.9,57.8c-1.8,0-3.2,1.4-3.2,3.2v46.8c0,1.8,1.4,3.2,3.2,3.2h81.8
	c0.9,0,1.7-0.4,2.3-1c0.6-0.6,0.9-1.3,0.9-2.1V61.1c0-1.8-1.4-3.2-3.2-3.2L21.9,57.8L21.9,57.8z"/>
<path d="M32,107.2c-0.9,0-1.8-0.3-2.5-1l-6.7-6.7c-0.7-0.7-1-1.5-1-2.5s0.4-1.8,1-2.5l6.7-6.7c1.4-1.4,3.6-1.4,5,0s1.4,3.6,0,4.9
	L30.2,97l4.2,4.2c1.4,1.4,1.4,3.6,0,4.9C33.7,106.8,32.8,107.2,32,107.2z"/>
<path d="M94.7,85.5H78.8c-4.4,0-8-3.6-8-8v-7.8c0-4.4,3.6-8,8-8h15.9c4.4,0,8,3.6,8,8v7.8C102.6,81.9,99.1,85.5,94.7,85.5z
	 M78.8,68.8c-0.5,0-1,0.5-1,1v7.8c0,0.5,0.5,1,1,1h15.9c0.5,0,1-0.5,1-1v-7.8c0-0.5-0.5-1-1-1H78.8z"/>
<path class="st0" d="M32.2,53.2"/>
<path d="M120.7,96c-1.9,0-3.5-1.6-3.5-3.5s1.6-3.5,3.5-3.5c1.8,0,3.2-1.4,3.2-3.2V39.1c0-1.8-1.4-3.2-3.2-3.2H38.9
	c-1.8,0-3.2,1.4-3.2,3.2v5.8c0,1.9-1.6,3.5-3.5,3.5s-3.5-1.6-3.5-3.5v-5.8c0-5.6,4.6-10.2,10.2-10.2h81.8c5.6,0,10.2,4.6,10.2,10.2
	v46.8C130.9,91.5,126.3,96,120.7,96z"/>
</svg>
