<?xml version="1.0" encoding="utf-8"?>
<!-- Generator: Adobe Illustrator 21.0.0, SVG Export Plug-In . SVG Version: 6.00 Build 0)  -->
<svg version="1.1" id="cart" xmlns="http://www.w3.org/2000/svg" xmlns:xlink="http://www.w3.org/1999/xlink" x="0px" y="0px"
	 viewBox="0 0 143 143" style="enable-background:new 0 0 143 143;" xml:space="preserve">
<path d="M115.9,86.1h-64c-1.4,0-2.7-0.9-3.3-2.2L27.2,28.1H12.9c-1.9,0-3.5-1.6-3.5-3.5s1.6-3.5,3.5-3.5h16.7c1.4,0,2.7,0.9,3.3,2.2
	l21.4,55.8h58.9l9.1-34l-67.1-6c-1.9-0.2-3.3-1.9-3.2-3.8c0.2-1.9,1.9-3.3,3.8-3.2l71.2,6.4c1,0.1,2,0.6,2.6,1.5
	c0.6,0.8,0.8,1.9,0.5,2.9l-10.9,40.6C118.9,85,117.5,86.1,115.9,86.1z"/>
<path d="M63,129.7c-7.8,0-14.2-6.4-14.2-14.2s6.4-14.2,14.2-14.2s14.2,6.4,14.2,14.2S70.8,129.7,63,129.7z M63,108.3
	c-4,0-7.2,3.2-7.2,7.2s3.2,7.2,7.2,7.2s7.2-3.2,7.2-7.2S67,108.3,63,108.3z"/>
<path d="M107.1,129.7c-7.8,0-14.2-6.4-14.2-14.2s6.4-14.2,14.2-14.2s14.2,6.4,14.2,14.2S114.9,129.7,107.1,129.7z M107.1,108.3
	c-4,0-7.2,3.2-7.2,7.2s3.2,7.2,7.2,7.2s7.2-3.2,7.2-7.2S111.1,108.3,107.1,108.3z"/>
<path d="M116.7,97.6H52.1c-1.9,0-3.5-1.6-3.5-3.5s1.6-3.5,3.5-3.5h64.6c1.9,0,3.5,1.6,3.5,3.5S118.6,97.6,116.7,97.6z"/>
</svg>
