<?xml version="1.0" encoding="utf-8"?>
<!-- Generator: Adobe Illustrator 21.0.0, SVG Export Plug-In . SVG Version: 6.00 Build 0)  -->
<svg version="1.1" id="Caution-SM" xmlns="http://www.w3.org/2000/svg" xmlns:xlink="http://www.w3.org/1999/xlink" x="0px" y="0px"
	 viewBox="0 0 143 143" style="enable-background:new 0 0 143 143;" xml:space="preserve">
<path d="M124.5,120.3h-106c-1.3,0-2.4-0.7-3-1.8c-0.6-1.1-0.6-2.4,0-3.5l53-91.8c0.6-1.1,1.8-1.8,3-1.8s2.4,0.7,3,1.8l53,91.8
	c0.6,1.1,0.6,2.4,0,3.5C126.9,119.6,125.8,120.3,124.5,120.3z M24.6,113.3h93.9L71.5,32L24.6,113.3z"/>
<path d="M71.5,93.4c-1.9,0-3.5-1.6-3.5-3.5V58.4c0-1.9,1.6-3.5,3.5-3.5s3.5,1.6,3.5,3.5v31.5C75,91.9,73.4,93.4,71.5,93.4z"/>
<circle cx="71.5" cy="102.9" r="3.6"/>
</svg>
