<?xml version="1.0" encoding="utf-8"?>
<!-- Generator: Adobe Illustrator 21.0.0, SVG Export Plug-In . SVG Version: 6.00 Build 0)  -->
<svg version="1.1" id="checkbox" xmlns="http://www.w3.org/2000/svg" xmlns:xlink="http://www.w3.org/1999/xlink" x="0px" y="0px"
	 viewBox="0 0 143 143" style="enable-background:new 0 0 143 143;" xml:space="preserve">
<path d="M72.8,109.7c-0.9,0-1.7-0.3-2.4-0.9l-37-37.1c-1.4-1.3-1.5-3.5-0.2-4.9s3.5-1.5,4.9-0.2l34,34.4l42.8-59.9
	c1.1-1.6,3.3-2,4.9-0.9s2,3.3,0.9,4.9l-45,63c-0.6,0.8-1.5,1.4-2.5,1.5C73.1,109.7,73,109.7,72.8,109.7z"/>
<path d="M105.5,123.9H35.3c-8.4,0-15.2-6.8-15.2-15.2V38.5c0-8.4,6.8-15.2,15.2-15.2h66.3c1.9,0,3.5,1.6,3.5,3.5s-1.6,3.5-3.5,3.5
	H35.3c-4.4,0-8.2,3.8-8.2,8.2v70.2c0,4.4,3.8,8.2,8.2,8.2h70.2c4.4,0,8.2-3.8,8.2-8.2V75c0-1.9,1.6-3.5,3.5-3.5s3.5,1.6,3.5,3.5
	v33.7C120.7,117.1,113.9,123.9,105.5,123.9z"/>
</svg>
