<?xml version="1.0" encoding="utf-8"?>
<!-- Generator: Adobe Illustrator 21.0.0, SVG Export Plug-In . SVG Version: 6.00 Build 0)  -->
<svg version="1.1" id="clock-bold" xmlns="http://www.w3.org/2000/svg" xmlns:xlink="http://www.w3.org/1999/xlink" x="0px" y="0px"
	 viewBox="0 0 143 143" style="enable-background:new 0 0 143 143;" xml:space="preserve">
<path d="M71.2,131.8c-32.7,0-59.3-26.6-59.3-59.3s26.6-59.3,59.3-59.3s59.3,26.6,59.3,59.3S103.9,131.8,71.2,131.8z M71.2,27.2
	c-25,0-45.3,20.3-45.3,45.3s20.3,45.3,45.3,45.3s45.3-20.3,45.3-45.3S96.2,27.2,71.2,27.2z"/>
<path d="M93.6,79.5H71.2c-3.9,0-7-3.1-7-7V50.1c0-3.9,3.1-7,7-7s7,3.1,7,7v15.4h15.4c3.9,0,7,3.1,7,7S97.5,79.5,93.6,79.5z"/>
</svg>
