<?xml version="1.0" encoding="utf-8"?>
<!-- Generator: Adobe Illustrator 21.0.0, SVG Export Plug-In . SVG Version: 6.00 Build 0)  -->
<svg version="1.1" id="clock" xmlns="http://www.w3.org/2000/svg" xmlns:xlink="http://www.w3.org/1999/xlink" x="0px" y="0px"
	 viewBox="0 0 143 143" style="enable-background:new 0 0 143 143;" xml:space="preserve">
<path d="M71.2,122.3c-27.4,0-49.8-22.3-49.8-49.8c0-27.4,22.3-49.8,49.8-49.8S121,45.1,121,72.5S98.6,122.3,71.2,122.3z M71.2,29.7
	c-23.6,0-42.8,19.2-42.8,42.8s19.2,42.8,42.8,42.8S114,96.1,114,72.5S94.8,29.7,71.2,29.7z"/>
<path d="M98.6,76H71.2c-1.9,0-3.5-1.6-3.5-3.5V45.1c0-1.9,1.6-3.5,3.5-3.5s3.5,1.6,3.5,3.5V69h23.9c1.9,0,3.5,1.6,3.5,3.5
	S100.6,76,98.6,76z"/>
</svg>
