<?xml version="1.0" encoding="utf-8"?>
<!-- Generator: Adobe Illustrator 21.0.0, SVG Export Plug-In . SVG Version: 6.00 Build 0)  -->
<svg version="1.1" id="code" xmlns="http://www.w3.org/2000/svg" xmlns:xlink="http://www.w3.org/1999/xlink" x="0px" y="0px"
	 viewBox="0 0 143 143" style="enable-background:new 0 0 143 143;" xml:space="preserve">
<path d="M98.5,100.3c-1.1,0-2.1-0.5-2.8-1.4c-1.2-1.5-0.8-3.7,0.7-4.9l27.7-20.7L96.4,52.6c-1.5-1.2-1.9-3.3-0.7-4.9
	c1.2-1.5,3.3-1.9,4.9-0.7l31.5,23.5c0.9,0.7,1.4,1.7,1.4,2.8s-0.5,2.1-1.4,2.8l-31.5,23.5C100,100,99.2,100.3,98.5,100.3z"/>
<path d="M44.7,100.3c-0.7,0-1.5-0.2-2.1-0.7L11.1,76.1c-0.9-0.7-1.4-1.7-1.4-2.8s0.5-2.1,1.4-2.8L42.6,47c1.5-1.2,3.7-0.8,4.9,0.7
	s0.8,3.7-0.7,4.9L19,73.3L46.8,94c1.5,1.2,1.9,3.3,0.7,4.9C46.8,99.8,45.7,100.3,44.7,100.3z"/>
<path d="M51.7,112.3c-0.6,0-1.1-0.1-1.7-0.4c-1.7-0.9-2.3-3-1.4-4.7l38-70.2c0.9-1.7,3-2.3,4.7-1.4c1.7,0.9,2.3,3,1.4,4.7l-38,70.2
	C54.2,111.6,53,112.3,51.7,112.3z"/>
</svg>
