<?xml version="1.0" encoding="utf-8"?>
<!-- Generator: Adobe Illustrator 21.0.0, SVG Export Plug-In . SVG Version: 6.00 Build 0)  -->
<svg version="1.1" id="coins" xmlns="http://www.w3.org/2000/svg" xmlns:xlink="http://www.w3.org/1999/xlink" x="0px" y="0px"
	 viewBox="0 0 143 143" style="enable-background:new 0 0 143 143;" xml:space="preserve">
<path d="M79.3,62c-18.9,0-34-3.1-39.6-4.5c-1.9-0.5-3-2.3-2.6-4.2c0.5-1.9,2.3-3,4.2-2.6c5.4,1.3,19.8,4.3,38,4.3
	c18.3,0,32.8-3.1,38.3-4.4c1.9-0.5,3.8,0.7,4.2,2.6c0.5,1.9-0.7,3.8-2.6,4.2C113.6,58.8,98.3,62,79.3,62z"/>
<path d="M79.3,79.8c-17.8,0-54.6-3.5-54.6-14.3V47.2c0-10.8,36.8-14.3,54.6-14.3c13.2,0,26.3,1.3,36.9,3.8
	c15.9,3.6,17.7,7.8,17.7,10.5v18.3C133.9,76.3,97.1,79.8,79.3,79.8z M31.7,64.8c3.1,2.9,21.6,8,47.6,8s44.5-5.1,47.6-8v-17
	c-3.2-2.9-21.7-8-47.6-8c-26,0-44.5,5.1-47.6,8V64.8z M127.2,48.2L127.2,48.2L127.2,48.2z"/>
<path d="M64.8,97.4c-18.9,0-34-3.1-39.6-4.5c-1.9-0.5-3-2.3-2.6-4.2c0.5-1.9,2.3-3,4.2-2.6c5.4,1.3,19.8,4.3,38,4.3
	c18.3,0,32.8-3.1,38.3-4.4c1.9-0.5,3.8,0.7,4.2,2.6c0.5,1.9-0.7,3.8-2.6,4.2C99.1,94.2,83.8,97.4,64.8,97.4z"/>
<path d="M64.7,115.2c-17.8,0-54.6-3.5-54.6-14.3V82.6c0-3.7,3.5-6.4,11.4-8.9c1.8-0.6,3.8,0.4,4.4,2.3c0.6,1.8-0.4,3.8-2.3,4.4
	c-4.3,1.4-6,2.5-6.6,2.9v17c3.1,2.9,21.6,8,47.6,8c26,0,44.5-5.1,47.6-8V86.1c0-1.9,1.6-3.5,3.5-3.5s3.5,1.6,3.5,3.5v14.8
	C119.3,111.7,82.5,115.2,64.7,115.2z"/>
</svg>
