<?xml version="1.0" encoding="utf-8"?>
<!-- Generator: Adobe Illustrator 21.0.0, SVG Export Plug-In . SVG Version: 6.00 Build 0)  -->
<svg version="1.1" id="contract" xmlns="http://www.w3.org/2000/svg" xmlns:xlink="http://www.w3.org/1999/xlink" x="0px" y="0px"
	 viewBox="0 0 143 143" style="enable-background:new 0 0 143 143;" xml:space="preserve">
<path d="M113.5,129.5H31.4c-1.9,0-3.5-1.6-3.5-3.5V17c0-1.9,1.6-3.5,3.5-3.5h82.1c1.9,0,3.5,1.6,3.5,3.5v109
	C117,127.9,115.4,129.5,113.5,129.5z M34.9,122.5H110v-102H34.9V122.5z"/>
<path d="M98.9,56.9H43.8c-1.9,0-3.5-1.6-3.5-3.5s1.6-3.5,3.5-3.5h55.1c1.9,0,3.5,1.6,3.5,3.5S100.8,56.9,98.9,56.9z"/>
<path d="M98.9,73H43.8c-1.9,0-3.5-1.6-3.5-3.5s1.6-3.5,3.5-3.5h55.1c1.9,0,3.5,1.6,3.5,3.5S100.8,73,98.9,73z"/>
<path d="M98.9,39.7H43.8c-1.9,0-3.5-1.6-3.5-3.5s1.6-3.5,3.5-3.5h55.1c1.9,0,3.5,1.6,3.5,3.5S100.8,39.7,98.9,39.7z"/>
<path d="M71.6,89.1H44.9c-1.9,0-3.5-1.6-3.5-3.5s1.6-3.5,3.5-3.5h26.6c1.9,0,3.5,1.6,3.5,3.5S73.5,89.1,71.6,89.1z"/>
<path d="M98,113.2H80c-1.9,0-3.5-1.6-3.5-3.5s1.6-3.5,3.5-3.5h18c1.9,0,3.5,1.6,3.5,3.5S99.9,113.2,98,113.2z"/>
<path d="M56.3,117.9c-0.9,0-1.8-0.3-2.4-1l-11.6-11.3c-1.4-1.4-1.4-3.6-0.1-4.9c1.4-1.4,3.6-1.4,4.9-0.1l11.6,11.3
	c1.4,1.4,1.4,3.6,0.1,4.9C58.1,117.6,57.2,117.9,56.3,117.9z"/>
<path d="M44.8,117.9c-0.9,0-1.8-0.4-2.5-1.1c-1.4-1.4-1.3-3.6,0.1-4.9L54,100.6c1.4-1.4,3.6-1.3,4.9,0.1c1.4,1.4,1.3,3.6-0.1,4.9
	l-11.6,11.3C46.5,117.6,45.6,117.9,44.8,117.9z"/>
</svg>
