<?xml version="1.0" encoding="utf-8"?>
<!-- Generator: Adobe Illustrator 21.0.0, SVG Export Plug-In . SVG Version: 6.00 Build 0)  -->
<svg version="1.1" id="Calque_1" xmlns="http://www.w3.org/2000/svg" xmlns:xlink="http://www.w3.org/1999/xlink" x="0px" y="0px"
	 viewBox="0 0 143 143" style="enable-background:new 0 0 143 143;" xml:space="preserve">
<g id="Croix-XS">
	<path d="M79.5,71.5l40.6-40.6c2.7-2.7,2.7-7.2,0-9.9s-7.2-2.7-9.9,0L69.6,61.6L29,21c-2.7-2.7-7.2-2.7-9.9,0s-2.7,7.2,0,9.9
		l40.6,40.6l-40.6,40.6c-2.7,2.7-2.7,7.2,0,9.9c1.4,1.4,3.2,2.1,5,2.1s3.6-0.7,5-2.1l40.6-40.6l40.6,40.6c1.4,1.4,3.2,2.1,4.9,2.1
		s3.6-0.7,4.9-2.1c2.7-2.7,2.7-7.2,0-9.9L79.5,71.5z"/>
</g>
</svg>
