<?xml version="1.0" encoding="utf-8"?>
<!-- Generator: Adobe Illustrator 21.0.0, SVG Export Plug-In . SVG Version: 6.00 Build 0)  -->
<svg version="1.1" id="download" xmlns="http://www.w3.org/2000/svg" xmlns:xlink="http://www.w3.org/1999/xlink" x="0px" y="0px"
	 viewBox="0 0 143 143" style="enable-background:new 0 0 143 143;" xml:space="preserve">
<path d="M103.5,127.4h-64c-1.9,0-3.5-1.6-3.5-3.5s1.6-3.5,3.5-3.5h64c1.9,0,3.5,1.6,3.5,3.5S105.4,127.4,103.5,127.4z"/>
<path d="M105.2,64.2c-1.5-1.3-3.7-1.1-4.9,0.4L74,95V23.7c0-1.9-1.6-3.5-3.5-3.5S67,21.7,67,23.7v71.6L40.8,64.6
	c-1.3-1.5-3.5-1.6-4.9-0.4c-1.5,1.3-1.6,3.5-0.4,4.9l32.3,37.7c0.7,0.8,1.6,1.2,2.7,1.2l0,0c1,0,2-0.4,2.7-1.2l32.5-37.7
	C106.8,67.7,106.6,65.5,105.2,64.2z"/>
</svg>
