<?xml version="1.0" encoding="utf-8"?>
<!-- Generator: Adobe Illustrator 21.0.0, SVG Export Plug-In . SVG Version: 6.00 Build 0)  -->
<svg version="1.1" id="empty" xmlns="http://www.w3.org/2000/svg" xmlns:xlink="http://www.w3.org/1999/xlink" x="0px" y="0px"
	 viewBox="0 0 143 143" style="enable-background:new 0 0 143 143;" xml:space="preserve">
<path d="M71.4,119.8c-6.5,0-12.8-1.3-18.8-3.9c-1.8-0.8-2.6-2.8-1.8-4.6c0.8-1.8,2.8-2.6,4.6-1.8c5.1,2.2,10.4,3.3,16,3.3
	c22.2,0,40.3-18.1,40.3-40.3c0-6.1-1.4-12.1-3.9-17.4c-0.9-1.7-0.1-3.8,1.6-4.7c1.7-0.9,3.8-0.1,4.7,1.6c3,6.2,4.7,13.3,4.7,20.4
	C118.7,98.6,97.5,119.8,71.4,119.8z"/>
<path d="M35.6,116.2c-0.8,0-1.7-0.3-2.3-0.9c-1.4-1.3-1.6-3.5-0.3-4.9L104.7,30c1.3-1.4,3.5-1.6,4.9-0.3c1.4,1.3,1.6,3.5,0.3,4.9
	L38.2,115C37.5,115.8,36.6,116.2,35.6,116.2z"/>
<path d="M32.1,95.2c-1.3,0-2.6-0.7-3.2-2c-3.2-6.5-4.7-13.5-4.7-20.7c0-26.1,21.2-47.3,47.3-47.3c4.6,0,9.1,0.7,13.3,2
	c1.8,0.6,2.9,2.5,2.3,4.4c-0.6,1.8-2.5,2.9-4.4,2.3c-3.5-1.1-7.3-1.6-11.3-1.6c-22.2,0-40.3,18.1-40.3,40.3c0,6.2,1.4,12.1,4.1,17.7
	c0.8,1.7,0.1,3.8-1.6,4.7C33.1,95.1,32.6,95.2,32.1,95.2z"/>
</svg>
