<?xml version="1.0" encoding="utf-8"?>
<!-- Generator: Adobe Illustrator 21.0.0, SVG Export Plug-In . SVG Version: 6.00 Build 0)  -->
<svg version="1.1" id="Eye" xmlns="http://www.w3.org/2000/svg" xmlns:xlink="http://www.w3.org/1999/xlink" x="0px" y="0px"
	 viewBox="0 0 143 143" style="enable-background:new 0 0 143 143;" xml:space="preserve">
<g>
	<path d="M124,70.1c-1.2,0-2.4-0.6-3-1.7c-8.2-13.7-27-27.7-50.2-27.9h-0.5c-23.2,0.2-41.9,14.1-50.1,27.9c-1,1.7-3.1,2.2-4.8,1.2
		c-1.7-1-2.2-3.1-1.2-4.8c9.2-15.4,30.2-31.1,56.1-31.3h0.5c26,0.2,47,15.9,56.2,31.3c1,1.7,0.5,3.8-1.2,4.8
		C125.2,69.9,124.6,70.1,124,70.1z"/>
</g>
<g>
	<path d="M70.4,112.1c-26-0.2-47-15.9-56.2-31.3c-1-1.7-0.5-3.8,1.2-4.8c1.7-1,3.8-0.5,4.8,1.2c8.2,13.8,27,27.7,50.2,27.9h0.5
		c23.2-0.2,42-14.1,50.2-27.9c1-1.7,3.1-2.2,4.8-1.2c1.7,1,2.2,3.1,1.2,4.8c-9.2,15.4-30.2,31.1-56.2,31.3H70.4z"/>
</g>
<g>
	<path d="M70.6,101.3c-11.7,0-20.8-12.6-20.8-28.6c0-16,9.1-28.6,20.8-28.6s20.8,12.6,20.8,28.6C91.4,88.7,82.3,101.3,70.6,101.3z
		 M70.6,51.1c-7.5,0-13.8,9.9-13.8,21.6c0,11.7,6.3,21.6,13.8,21.6c7.5,0,13.8-9.9,13.8-21.6C84.4,61,78.1,51.1,70.6,51.1z"/>
</g>
</svg>
