<?xml version="1.0" encoding="utf-8"?>
<!-- Generator: Adobe Illustrator 21.0.0, SVG Export Plug-In . SVG Version: 6.00 Build 0)  -->
<svg version="1.1" id="globe" xmlns="http://www.w3.org/2000/svg" xmlns:xlink="http://www.w3.org/1999/xlink" x="0px" y="0px"
	 viewBox="0 0 143 143" style="enable-background:new 0 0 143 143;" xml:space="preserve">
<path d="M75.5,83.8c19.6,0,35.6-16,35.6-35.6s-16-35.6-35.6-35.6s-35.6,16-35.6,35.6S55.9,83.8,75.5,83.8z M75.5,19.6
	c15.8,0,28.6,12.8,28.6,28.6S91.3,76.8,75.5,76.8S46.9,64,46.9,48.2S59.8,19.6,75.5,19.6z"/>
<path d="M112.6,74.8c-1.5-1.2-3.7-0.9-4.9,0.6c-6.2,7.8-14.6,13-24.2,15.2C60.7,95.5,38.1,81,33.1,58.3c-2.8-12.9,0.6-26.5,9.1-36.4
	c1.3-1.5,1.1-3.7-0.4-4.9c-1.5-1.3-3.7-1.1-4.9,0.4C27,28.9,23,44.8,26.3,59.8C31.1,82,50.3,97.4,72,98.5v26.9H53.8
	c-1.9,0-3.5,1.6-3.5,3.5s1.6,3.5,3.5,3.5h43.7c1.9,0,3.5-1.6,3.5-3.5s-1.6-3.5-3.5-3.5H79V98.3c2-0.2,4-0.5,5.9-0.9
	c11.1-2.5,21.1-8.7,28.2-17.7C114.3,78.2,114.1,76,112.6,74.8z"/>
</svg>
