<?xml version="1.0" encoding="utf-8"?>
<!-- Generator: Adobe Illustrator 21.0.0, SVG Export Plug-In . SVG Version: 6.00 Build 0)  -->
<svg version="1.1" id="Heart" xmlns="http://www.w3.org/2000/svg" xmlns:xlink="http://www.w3.org/1999/xlink" x="0px" y="0px"
	 viewBox="0 0 143 143" style="enable-background:new 0 0 143 143;" xml:space="preserve">
<path d="M70,122.4c-0.7,0-1.5-0.2-2.1-0.7c-1.4-1.1-35.3-26.1-46.9-52.7c-4.1-8.2-7.5-26.9,9.1-40.3c5.5-4.4,11.3-6,17.3-4.5
	C57.8,26.7,65.8,37.9,70,45c4.2-7.2,12.1-18.4,22.5-20.8c6-1.4,11.8,0.1,17.3,4.6c12.1,9.8,15.5,24.2,9.5,39.6l-0.1,0.2
	c0,0.2-0.1,0.3-0.2,0.4c-11.6,26.8-45.5,51.7-47,52.8C71.5,122.2,70.7,122.4,70,122.4z M43.1,30.7c-2.9,0-5.7,1.2-8.6,3.5
	c-16.4,13.3-7.6,31-7.2,31.8c0,0.1,0.1,0.1,0.1,0.2c9.3,21.3,35.1,42.5,42.6,48.3c7.5-5.8,33.3-26.8,42.5-48.2
	c0.1-0.2,0.1-0.4,0.2-0.5c2.8-7.3,5.7-21.1-7.4-31.6c0,0,0,0,0,0c-3.8-3.1-7.5-4.1-11.2-3.2c-9.8,2.4-18.4,17.4-20.9,23
	C72.7,55.2,71.4,56,70,56c0,0,0,0,0,0c-1.4,0-2.6-0.8-3.2-2.1c-2.5-5.6-11.2-20.6-21.1-22.9C44.9,30.8,44,30.7,43.1,30.7z
	 M118.4,65.2L118.4,65.2L118.4,65.2z M118.4,65.2C118.4,65.2,118.4,65.2,118.4,65.2C118.4,65.2,118.4,65.2,118.4,65.2z M118.4,65.2
	C118.4,65.2,118.4,65.2,118.4,65.2C118.4,65.2,118.4,65.2,118.4,65.2z M118.4,65.2C118.4,65.2,118.4,65.2,118.4,65.2
	C118.4,65.2,118.4,65.2,118.4,65.2z M118.4,65.2C118.4,65.2,118.4,65.2,118.4,65.2C118.4,65.2,118.4,65.2,118.4,65.2z M118.4,65.2
	C118.4,65.2,118.4,65.2,118.4,65.2C118.4,65.2,118.4,65.2,118.4,65.2z M118.4,65.2C118.4,65.2,118.4,65.2,118.4,65.2
	C118.4,65.2,118.4,65.2,118.4,65.2z M118.3,65.1C118.3,65.1,118.3,65.1,118.3,65.1C118.3,65.1,118.3,65.1,118.3,65.1z M118.3,65.1
	C118.3,65.1,118.3,65.1,118.3,65.1C118.3,65.1,118.3,65.1,118.3,65.1z M118.3,65.1C118.3,65.1,118.3,65.1,118.3,65.1
	C118.3,65.1,118.3,65.1,118.3,65.1z"/>
</svg>
