<?xml version="1.0" encoding="utf-8"?>
<!-- Generator: Adobe Illustrator 21.0.0, SVG Export Plug-In . SVG Version: 6.00 Build 0)  -->
<svg version="1.1" id="hourglass" xmlns="http://www.w3.org/2000/svg" xmlns:xlink="http://www.w3.org/1999/xlink" x="0px" y="0px"
	 viewBox="0 0 143 143" style="enable-background:new 0 0 143 143;" xml:space="preserve">
<path d="M99.1,120.8C99.1,120.8,99,120.8,99.1,120.8c-2-0.1-3.6-1.7-3.5-3.6c0.2-9.2-2-31.7-27.8-40.3C38,66.9,38,40.4,38,27.6
	c0-1.9,1.6-3.5,3.5-3.5s3.5,1.6,3.5,3.5c0,12.8,0,34.2,25,42.6c31.1,10.4,32.8,38.7,32.6,47.2C102.5,119.3,101,120.8,99.1,120.8z"/>
<path d="M41.5,120.7c-1.9,0-3.5-1.5-3.5-3.4c-0.2-11.5,4.9-28.3,20.3-37.9c1.6-1,3.8-0.5,4.8,1.1s0.5,3.8-1.1,4.8
	c-13.7,8.6-17.1,24.1-17,31.9C45.1,119.1,43.5,120.7,41.5,120.7C41.6,120.7,41.5,120.7,41.5,120.7z"/>
<path d="M84.1,70.8c-1.1,0-2.1-0.5-2.8-1.4c-1.1-1.6-0.8-3.8,0.8-4.9c13.7-10,13.7-25.3,13.7-36.5v-0.4c0-1.9,1.6-3.5,3.5-3.5
	s3.5,1.6,3.5,3.5V28c0,12,0,30-16.6,42.2C85.5,70.6,84.8,70.8,84.1,70.8z"/>
<path d="M107.5,20.4H34.2c-1.9,0-3.5-1.6-3.5-3.5s1.6-3.5,3.5-3.5h73.3c1.9,0,3.5,1.6,3.5,3.5S109.4,20.4,107.5,20.4z"/>
<path d="M107.5,131.2H34.2c-1.9,0-3.5-1.6-3.5-3.5s1.6-3.5,3.5-3.5h73.3c1.9,0,3.5,1.6,3.5,3.5C111,129.6,109.4,131.2,107.5,131.2z"
	/>
<path d="M70.8,63.5c-10.8,0-19.7-10.9-19.7-24.4c0-1.9,1.6-3.5,3.5-3.5H87c1.9,0,3.5,1.6,3.5,3.5C90.5,52.6,81.7,63.5,70.8,63.5z
	 M58.5,42.6c1.2,7.9,6.3,13.9,12.4,13.9s11.2-6,12.4-13.9H58.5z"/>
</svg>
