<?xml version="1.0" encoding="utf-8"?>
<!-- Generator: Adobe Illustrator 21.0.0, SVG Export Plug-In . SVG Version: 6.00 Build 0)  -->
<svg version="1.1" id="Calque_1" xmlns="http://www.w3.org/2000/svg" xmlns:xlink="http://www.w3.org/1999/xlink" x="0px" y="0px"
	 viewBox="0 0 143 143" style="enable-background:new 0 0 143 143;" xml:space="preserve">
<g id="Fiche">
	<g>
		<path d="M126.7,38.4H81.1c-1.9,0-3.5-1.6-3.5-3.5s1.6-3.5,3.5-3.5h45.6c1.9,0,3.5,1.6,3.5,3.5S128.6,38.4,126.7,38.4z"/>
	</g>
	<g>
		<path d="M126.7,66.2H81.1c-1.9,0-3.5-1.6-3.5-3.5s1.6-3.5,3.5-3.5h45.6c1.9,0,3.5,1.6,3.5,3.5S128.6,66.2,126.7,66.2z"/>
	</g>
	<g>
		<path d="M126.7,94.1H17.9c-1.9,0-3.5-1.6-3.5-3.5s1.6-3.5,3.5-3.5h108.8c1.9,0,3.5,1.6,3.5,3.5S128.6,94.1,126.7,94.1z"/>
	</g>
	<g>
		<path d="M126.7,121.9H17.9c-1.9,0-3.5-1.6-3.5-3.5s1.6-3.5,3.5-3.5h108.8c1.9,0,3.5,1.6,3.5,3.5S128.6,121.9,126.7,121.9z"/>
	</g>
	<g>
		<path d="M52.9,74.3H28c-7.9,0-14.4-6.5-14.4-14.4v-25c-0.1-3.8,1.4-7.4,4.1-10.1c2.7-2.8,6.4-4.3,10.3-4.3h24.9
			c7.9,0,14.4,6.5,14.4,14.4v24.9C67.3,67.8,60.8,74.3,52.9,74.3z M28,27.5c-2,0-3.9,0.8-5.3,2.2c-1.4,1.4-2.1,3.2-2.1,5.1l0,25.1
			c0,4.1,3.3,7.4,7.4,7.4h24.9c4.1,0,7.4-3.4,7.4-7.5V34.9c0-4.1-3.3-7.4-7.4-7.4H28z"/>
	</g>
</g>
</svg>
