<?xml version="1.0" encoding="utf-8"?>
<!-- Generator: Adobe Illustrator 21.0.0, SVG Export Plug-In . SVG Version: 6.00 Build 0)  -->
<svg version="1.1" id="Calque_1" xmlns="http://www.w3.org/2000/svg" xmlns:xlink="http://www.w3.org/1999/xlink" x="0px" y="0px"
	 viewBox="0 0 143 143" style="enable-background:new 0 0 143 143;" xml:space="preserve">
<path id="Feuille-SM" d="M119.2,24.9c-0.2-1.6-1.6-2.9-3.3-3C85.5,20.4,62.7,27.7,48,43.7C28.4,65,30,94.5,30.7,101.1
	c-4.7,8.6-9.5,17.7-9.5,17.7c-0.5,1.6,0.1,3.4,1.6,4.2c0.5,0.3,1.1,0.4,1.7,0.4c1.1,0,2.1-0.5,2.8-1.4l0,0c0,0,0.1-0.1,0.1-0.3
	c0.1-0.1,0.1-0.2,0.2-0.2c0,0,2.9-5.4,3-5.5c1.6-2.9,3.5-6.5,5.5-10.2c22.6,4.1,47.4-2.8,63.8-18.1C111.3,77,124,57.4,119.2,24.9z
	 M53.2,48.4C64.3,36.3,81,29.7,102.9,28.8C95,33.8,83.7,41.5,72,51.6c0.1-3.5,0-7.3-0.3-9.8c-0.3-1.9-2-3.2-4-3c-1.9,0.3-3.2,2-3,4
	c0.5,3.4,0.3,11.1,0.1,15.2c-9.7,9-19.3,19.7-27.3,31.7C38,78.6,41.1,61.6,53.2,48.4z M95,82.6c-14.2,13.3-35.5,19.6-55.3,16.7
	c4.7-7.9,10.2-15.2,16.1-21.9c3.3-0.4,16.1-1.8,25.3,0.1c1.9,0.4,3.7-0.8,4.1-2.7c0.4-1.9-0.8-3.7-2.7-4.1
	c-6.3-1.3-13.8-1.2-19.5-0.9c7.2-7.3,14.6-13.8,21.5-19.3c3.2-0.2,12.8-0.6,18.6,0c1.9,0.2,3.7-1.1,3.9-3.1c0.2-1.9-1.1-3.7-3.1-3.9
	c-2.8-0.3-6.3-0.4-9.7-0.4c7.9-5.6,14.6-9.8,18.7-12.2C115.3,57.4,104.7,73.6,95,82.6z"/>
</svg>
