<?xml version="1.0" encoding="utf-8"?>
<!-- Generator: Adobe Illustrator 21.0.0, SVG Export Plug-In . SVG Version: 6.00 Build 0)  -->
<svg version="1.1" id="letter" xmlns="http://www.w3.org/2000/svg" xmlns:xlink="http://www.w3.org/1999/xlink" x="0px" y="0px"
	 viewBox="0 0 143 143" style="enable-background:new 0 0 143 143;" xml:space="preserve">
<path d="M133.3,34.6c0-0.1,0-0.3,0-0.4c0-0.1,0-0.2,0-0.3s-0.1-0.2-0.1-0.3s-0.1-0.2-0.1-0.3S133,33.1,133,33
	c-0.1-0.1-0.1-0.2-0.2-0.3v-0.1c0-0.1-0.1-0.1-0.2-0.2c-0.1-0.1-0.2-0.2-0.3-0.3s-0.2-0.1-0.3-0.2c-0.1-0.1-0.2-0.1-0.3-0.2
	s-0.2-0.1-0.3-0.2s-0.2-0.1-0.3-0.1s-0.2-0.1-0.3-0.1s-0.2-0.1-0.3-0.1s-0.2,0-0.4,0c-0.1,0-0.1,0-0.2,0H13.1c-0.1,0-0.2,0-0.2,0
	c-0.1,0-0.2,0-0.4,0c-0.1,0-0.2,0-0.3,0.1c-0.1,0-0.2,0.1-0.3,0.1s-0.2,0.1-0.3,0.1s-0.2,0.1-0.3,0.2C11.1,31.8,11,31.9,11,32
	c-0.1,0.1-0.2,0.1-0.3,0.2c-0.1,0.1-0.2,0.2-0.3,0.3c0,0.1-0.1,0.1-0.1,0.2c0,0,0,0.1-0.1,0.1c-0.1,0.1-0.1,0.2-0.2,0.3
	c-0.1,0.1-0.1,0.2-0.1,0.3s-0.1,0.2-0.1,0.3S9.7,33.9,9.7,34s0,0.2,0,0.3s0,0.3,0,0.4v0.1V113c0,1.9,1.6,3.5,3.5,3.5H130
	c1.9,0,3.5-1.6,3.5-3.5L133.3,34.6C133.3,34.7,133.3,34.7,133.3,34.6z M119.4,38.2L71.1,74.6L23.4,38.2H119.4z M16.6,109.4V41.8
	l52.4,40c0.6,0.5,1.4,0.7,2.1,0.7s1.5-0.2,2.1-0.7l53.1-40v67.6H16.6L16.6,109.4z"/>
</svg>
