<?xml version="1.0" encoding="utf-8"?>
<!-- Generator: Adobe Illustrator 21.0.0, SVG Export Plug-In . SVG Version: 6.00 Build 0)  -->
<svg version="1.1" id="Link" xmlns="http://www.w3.org/2000/svg" xmlns:xlink="http://www.w3.org/1999/xlink" x="0px" y="0px"
	 viewBox="0 0 143 143" style="enable-background:new 0 0 143 143;" xml:space="preserve">
<path d="M76,87.9c-4.7,0-9.2-1.8-12.5-5.2c-1.4-1.4-1.4-3.6,0-4.9c1.4-1.4,3.6-1.4,4.9,0c2,2,4.7,3.1,7.5,3.1s5.5-1.1,7.5-3.1
	l32.4-32.4c4.2-4.2,4.2-10.9,0-15.1c-4.2-4.1-10.9-4.1-15.1,0L76.6,54.5c-1.4,1.4-3.6,1.4-5,0c-1.4-1.4-1.4-3.6,0-4.9l24.2-24.2
	c6.9-6.9,18.1-6.9,25,0c6.9,6.9,6.9,18.1,0,25L88.5,82.7C85.2,86,80.7,87.9,76,87.9z"/>
<path d="M36.7,127.2c-4.5,0-9-1.7-12.5-5.2c-6.9-6.9-6.9-18.1,0-25l32.4-32.4c3.3-3.3,7.8-5.2,12.5-5.2s9.2,1.8,12.5,5.2
	c1.4,1.4,1.4,3.6,0,4.9c-1.4,1.4-3.6,1.4-4.9,0c-2-2-4.7-3.1-7.5-3.1s-5.5,1.1-7.5,3.1L29.2,102c-4.2,4.2-4.2,10.9,0,15.1
	s10.9,4.2,15.1,0L69.3,92c1.4-1.4,3.6-1.4,5,0c1.4,1.4,1.4,3.6,0,4.9L49.2,122C45.7,125.4,41.2,127.2,36.7,127.2z"/>
</svg>
