<?xml version="1.0" encoding="utf-8"?>
<!-- Generator: Adobe Illustrator 21.0.0, SVG Export Plug-In . SVG Version: 6.00 Build 0)  -->
<svg version="1.1" id="Link-bold_1_" xmlns="http://www.w3.org/2000/svg" xmlns:xlink="http://www.w3.org/1999/xlink" x="0px"
	 y="0px" viewBox="0 0 143 143" style="enable-background:new 0 0 143 143;" xml:space="preserve">
<g>
	<path d="M77.9,91.7c-3,0-6.2-0.6-9.2-1.9c-3.6-1.5-5.2-5.6-3.7-9.2c1.5-3.6,5.6-5.2,9.2-3.7c3.1,1.3,6.2,1,8-0.8l32.5-32.4
		c2.7-2.7,1.9-8.2-1.8-11.9c-3.7-3.7-9.2-4.5-11.9-1.8l-17,17c-2.7,2.7-7.2,2.7-9.9,0c-2.7-2.7-2.7-7.2,0-9.9l17-17
		c8.2-8.2,22.5-7.4,31.7,1.8c9.2,9.2,10,23.5,1.8,31.7L92.1,86C88.4,89.7,83.3,91.7,77.9,91.7z"/>
</g>
<g>
	<path d="M38.7,130.9c-6.1,0-12.5-2.5-17.5-7.5c-9.2-9.2-10-23.5-1.8-31.7l32.4-32.4c6.1-6.1,15.8-7.4,24.3-3.4
		c3.5,1.7,5,5.8,3.3,9.3c-1.7,3.5-5.8,5-9.3,3.3c-3.2-1.5-6.6-1.3-8.5,0.6l-32.4,32.4c-2.7,2.7-1.9,8.2,1.8,11.9
		c1.9,1.9,4.5,3.2,6.9,3.4c1.2,0.1,3.4,0,5-1.6l18-18c2.7-2.7,7.2-2.7,9.9,0c2.7,2.7,2.7,7.2,0,9.9l-18,18
		C49,129.1,43.9,130.9,38.7,130.9z"/>
</g>
</svg>
