<?xml version="1.0" encoding="utf-8"?>
<!-- Generator: Adobe Illustrator 21.0.0, SVG Export Plug-In . SVG Version: 6.00 Build 0)  -->
<svg version="1.1" id="Lock" xmlns="http://www.w3.org/2000/svg" xmlns:xlink="http://www.w3.org/1999/xlink" x="0px" y="0px"
	 viewBox="0 0 143 143" style="enable-background:new 0 0 143 143;" xml:space="preserve">
<path d="M95.8,59.3V45.9c0-14.9-10.5-25.8-24.9-25.8c-14.3,0-24.7,10.9-24.7,25.8v13.4c-8.5,0.2-15.3,7.1-15.3,15.6v31.8
	c0,8.6,7,15.6,15.6,15.6h48.9c8.6,0,15.6-7,15.6-15.5V74.9C111,66.4,104.2,59.5,95.8,59.3z M70.9,27.1c10.5,0,17.9,7.7,17.9,18.8
	v13.4H53.2V45.9C53.2,34.8,60.5,27.1,70.9,27.1z M104,106.8c0,4.7-3.9,8.5-8.6,8.5H46.5c-4.7,0-8.6-3.9-8.6-8.6V74.9
	c0-4.7,3.9-8.6,8.6-8.6h48.9c4.7,0,8.6,3.9,8.6,8.6V106.8z"/>
</svg>
