<?xml version="1.0" encoding="utf-8"?>
<!-- Generator: Adobe Illustrator 21.0.0, SVG Export Plug-In . SVG Version: 6.00 Build 0)  -->
<svg version="1.1" id="meal" xmlns="http://www.w3.org/2000/svg" xmlns:xlink="http://www.w3.org/1999/xlink" x="0px" y="0px"
	 viewBox="0 0 143 143" style="enable-background:new 0 0 143 143;" xml:space="preserve">
<path d="M38.8,94.9c-0.2,0-0.4,0-0.7-0.1c-1.9-0.4-3.1-2.2-2.8-4.1c2.2-11.6,7.9-19.8,16.3-23.8c1.8-0.8,3.8-0.1,4.7,1.7
	c0.8,1.8,0.1,3.8-1.7,4.7c-6.4,3-10.6,9.3-12.4,18.7C41.9,93.7,40.5,94.9,38.8,94.9z"/>
<path d="M127.5,113.4h-114c-1.9,0-3.5-1.6-3.5-3.5s1.6-3.5,3.5-3.5h114c1.9,0,3.5,1.6,3.5,3.5S129.5,113.4,127.5,113.4z"/>
<path d="M80.3,46.4c1.2-1.8,1.9-4,1.9-6.3c0-6.4-5.2-11.6-11.6-11.6S58.9,33.6,58.9,40c0,2.3,0.7,4.5,1.9,6.3
	C36.5,50.9,18,72.3,18,97.9c0,1.9,1.6,3.5,3.5,3.5s3.5-1.6,3.5-3.5c0-25.1,20.4-45.5,45.5-45.5S116,72.9,116,97.9
	c0,1.9,1.6,3.5,3.5,3.5s3.5-1.6,3.5-3.5C123,72.3,104.6,50.9,80.3,46.4z M70.5,35.4c2.6,0,4.6,2.1,4.6,4.6s-2.1,4.6-4.6,4.6
	s-4.6-2.1-4.6-4.6S68,35.4,70.5,35.4z"/>
</svg>
