<?xml version="1.0" encoding="utf-8"?>
<!-- Generator: Adobe Illustrator 21.0.0, SVG Export Plug-In . SVG Version: 6.00 Build 0)  -->
<svg version="1.1" id="menu" xmlns="http://www.w3.org/2000/svg" xmlns:xlink="http://www.w3.org/1999/xlink" x="0px" y="0px"
	 viewBox="0 0 143 143" style="enable-background:new 0 0 143 143;" xml:space="preserve">
<path d="M114.8,45.6H26.2c-1.9,0-3.5-1.6-3.5-3.5s1.6-3.5,3.5-3.5h88.7c1.9,0,3.5,1.6,3.5,3.5S116.8,45.6,114.8,45.6z"/>
<path d="M114.8,76.9H26.2c-1.9,0-3.5-1.6-3.5-3.5s1.6-3.5,3.5-3.5h88.7c1.9,0,3.5,1.6,3.5,3.5S116.8,76.9,114.8,76.9z"/>
<path d="M114.8,107.9H26.2c-1.9,0-3.5-1.6-3.5-3.5s1.6-3.5,3.5-3.5h88.7c1.9,0,3.5,1.6,3.5,3.5S116.8,107.9,114.8,107.9z"/>
</svg>
