<?xml version="1.0" encoding="utf-8"?>
<!-- Generator: Adobe Illustrator 21.0.0, SVG Export Plug-In . SVG Version: 6.00 Build 0)  -->
<svg version="1.1" id="menu-bold" xmlns="http://www.w3.org/2000/svg" xmlns:xlink="http://www.w3.org/1999/xlink" x="0px" y="0px"
	 viewBox="0 0 143 143" style="enable-background:new 0 0 143 143;" xml:space="preserve">
<path d="M120.5,45.3h-100c-3.9,0-7-3.1-7-7s3.1-7,7-7h100c3.9,0,7,3.1,7,7S124.4,45.3,120.5,45.3z"/>
<path d="M120.5,80.6h-100c-3.9,0-7-3.1-7-7s3.1-7,7-7h100c3.9,0,7,3.1,7,7S124.4,80.6,120.5,80.6z"/>
<path d="M120.5,115.5h-100c-3.9,0-7-3.1-7-7s3.1-7,7-7h100c3.9,0,7,3.1,7,7S124.4,115.5,120.5,115.5z"/>
</svg>
