<?xml version="1.0" encoding="utf-8"?>
<!-- Generator: Adobe Illustrator 21.0.0, SVG Export Plug-In . SVG Version: 6.00 Build 0)  -->
<svg version="1.1" id="meter" xmlns="http://www.w3.org/2000/svg" xmlns:xlink="http://www.w3.org/1999/xlink" x="0px" y="0px"
	 viewBox="0 0 143 143" style="enable-background:new 0 0 143 143;" xml:space="preserve">
<path d="M130.5,104c-1.8,0-3.3-1.4-3.5-3.2c0-0.2-1.5-17.9-12.4-32.3c-1.2-1.5-0.9-3.7,0.7-4.9c1.5-1.2,3.7-0.9,4.9,0.7
	c12.2,16.2,13.7,35.2,13.8,36c0.1,1.9-1.3,3.6-3.2,3.8C130.7,104,130.6,104,130.5,104z"/>
<path d="M12.5,104c-0.1,0-0.1,0-0.2,0c-1.9-0.1-3.4-1.8-3.3-3.7c0-0.6,0.9-14.9,9-29.4c7.5-13.6,22.9-29.7,53.5-29.7
	c11,0,19.6,2.4,24.9,4.5c1.8,0.7,2.7,2.7,2,4.5s-2.7,2.7-4.5,2c-4.8-1.8-12.6-4-22.4-4c-21.7,0-37.6,8.7-47.3,25.9
	c-7.4,13.1-8.2,26.5-8.2,26.6C15.9,102.6,14.3,104,12.5,104z"/>
<path d="M79,104h-5.6c-1.2,0-1.9-0.3-2.3-0.5c-0.3-0.2-0.6-0.4-0.9-0.7c-1-1-1.2-2.3-1.2-3.2V94c0-1.3,0.2-1.9,0.3-2.1
	c0.1-0.3,0.3-1,1.4-2.1l43.3-47c1.2-1.3,3.3-1.5,4.7-0.4s1.8,3.2,0.8,4.7l-36,54.6c-0.1,0.2-0.3,0.4-0.5,0.6l-0.1,0.1
	c-0.4,0.4-0.7,0.7-1.1,0.8C81.5,103.6,80.7,104,79,104z M76.1,97h2.2L90,79.4l-13.8,15L76.1,97L76.1,97z"/>
<path d="M71.5,67.1L71.5,67.1c-2,0-3.5-1.6-3.5-3.5l0.1-7.8c0-1.9,1.6-3.5,3.5-3.5s3.5,1.6,3.5,3.5L75,63.7
	C75,65.6,73.4,67.1,71.5,67.1z"/>
<path d="M50.2,73.3c-1,0-2.1-0.5-2.7-1.3l-4.8-6.1c-1.2-1.5-0.9-3.7,0.6-4.9s3.7-0.9,4.9,0.6l4.8,6.1c1.2,1.5,0.9,3.7-0.6,4.9
	C51.8,73,51,73.3,50.2,73.3z"/>
<path d="M35.2,89c-0.5,0-0.9-0.1-1.4-0.3l-7.2-3c-1.8-0.8-2.6-2.8-1.9-4.6c0.8-1.8,2.8-2.6,4.6-1.9l7.2,3c1.8,0.8,2.6,2.8,1.9,4.6
	C37.8,88.2,36.5,89,35.2,89z"/>
<path d="M107.5,89.5c-1.4,0-2.7-0.8-3.2-2.1c-0.8-1.8,0.1-3.8,1.9-4.6l7.2-3c1.8-0.7,3.8,0.1,4.6,1.9c0.8,1.8-0.1,3.8-1.9,4.6
	l-7.2,3C108.4,89.4,107.9,89.5,107.5,89.5z"/>
</svg>
