<?xml version="1.0" encoding="utf-8"?>
<!-- Generator: Adobe Illustrator 21.0.0, SVG Export Plug-In . SVG Version: 6.00 Build 0)  -->
<svg version="1.1" id="organization" xmlns="http://www.w3.org/2000/svg" xmlns:xlink="http://www.w3.org/1999/xlink" x="0px"
	 y="0px" viewBox="0 0 143 143" style="enable-background:new 0 0 143 143;" xml:space="preserve">
<path d="M39.2,97.5c-1.8,0-3.4-1.4-3.5-3.2c-0.3-3.8,1.3-11.4,8.9-13.7c1.5-0.4,3.2-0.9,5-1.3c3.4-0.8,10.2-2.6,12-4
	c-0.3-3.2-0.4-3.7-2.2-7.2c-1.9-3.7-3.8-13.8,0.3-20.3c1.6-2.6,4.9-5.8,11.2-5.8c6.3,0,9.5,3.1,11.2,5.7c4,6.4,2.3,16.3,0.4,20.1
	c-1.7,3.7-2.5,5.6-2.4,7.2c0.4,0.3,1.5,1,4.9,2.1c1.8,0.6,2.8,2.6,2.2,4.4s-2.6,2.8-4.4,2.2c-4.6-1.6-8.8-3.3-9.5-7.2
	c-0.7-3.9,0.8-7.1,2.9-11.7c1.1-2.3,2.4-9.6,0-13.4c-0.7-1-1.9-2.4-5.3-2.4s-4.6,1.4-5.3,2.5c-2.4,3.9-1,11.3,0,13.5
	c2.3,4.5,2.5,5.8,2.9,9.8l0.1,0.5c0.6,6.2-8.1,8.4-17.3,10.7c-1.7,0.4-3.4,0.8-4.7,1.2c-4,1.2-3.9,5.9-3.9,6.5
	c0.1,1.9-1.4,3.6-3.3,3.7C39.4,97.5,39.3,97.5,39.2,97.5z M80.2,75.4L80.2,75.4L80.2,75.4z"/>
<path d="M11.7,82.3c-1.8,0-3.3-1.4-3.5-3.2c-0.3-3.5,1.1-10.6,8.2-12.6c1.3-0.4,2.8-0.8,4.4-1.2c2.9-0.7,8.6-2.2,10.4-3.4
	c-0.3-2.6-0.4-3.2-1.8-6.1c-1.7-3.3-3.4-12.4,0.3-18.4c1.5-2.5,4.5-5.4,10.4-5.4c5.8,0,8.8,2.8,10.3,5.2c3.6,5.8,2,14.8,0.3,18.3
	c-1.4,3.1-2.1,4.8-2.1,6.1c0.5,0.3,1.8,1.1,5.5,2.2c1.8,0.6,2.9,2.6,2.3,4.4S53.8,71,52,70.5c-5.2-1.7-9.5-3.4-10.2-7.2
	c-0.6-3.6,0.8-6.5,2.6-10.6c1-2,2.1-8.4,0-11.6c-0.5-0.9-1.6-2-4.4-2c-2.8,0-3.9,1.2-4.4,2.1c-2,3.3-1,9.7,0,11.6
	c1.9,4,2.2,5.3,2.6,8.7l0.1,0.6C39,68,31,70,22.5,72.1c-1.5,0.4-2.9,0.7-4.1,1.1c-3.5,1-3.2,5.2-3.2,5.4c0.1,1.9-1.3,3.6-3.2,3.8
	C11.9,82.3,11.8,82.3,11.7,82.3z M31.3,62.8L31.3,62.8L31.3,62.8z"/>
<path d="M130.1,75.3c-1,0-2-0.4-2.7-1.3c-0.2-0.2-0.3-0.3-0.8-0.5l-0.8-0.2c-14.9-4.3-19.4-5.6-20.1-10.2c-0.6-3.8,0.9-7,2.6-10.7
	c0.9-2,2.1-8.3,0-11.6c-0.5-0.9-1.6-2-4.4-2s-3.8,1.1-4.3,2c-2.1,3.4-0.9,9.8,0,11.7c2.1,4.2,2.2,5.4,2.6,9.4c0.5,5.5-7,7.7-11,8.8
	c-1.9,0.5-3.8-0.6-4.3-2.4s0.6-3.8,2.4-4.3c3.7-1,5.2-1.8,5.8-2.2c-0.3-2.6-0.4-3.2-1.9-6.1c-1.7-3.5-3.4-12.5,0.3-18.5
	c1.5-2.4,4.5-5.3,10.3-5.3s8.8,2.8,10.3,5.2c3.7,5.8,2.1,14.8,0.4,18.3c-1.4,3-2.2,4.7-2.1,6.1c1.6,1.1,7.9,3,15.2,5.1l1,0.3
	c0.1,0,0.3,0.1,0.4,0.1c1.1,0.4,2.4,1.1,3.6,2.6c1.2,1.5,1,3.7-0.4,4.9C131.7,75.1,130.9,75.3,130.1,75.3z"/>
<path d="M110.7,118.4c-0.7,0-1.5-0.2-2.1-0.7c-0.6-0.4-14-10.4-18.8-21.1c-1.8-3.7-3.3-12.1,4.1-18.1c3.3-2.7,6.5-2.7,8.5-2.2
	c3.5,0.8,6.2,3.6,8.2,6.2c1.9-2.6,4.7-5.4,8.2-6.2c2-0.5,5.2-0.5,8.5,2.2c5.3,4.3,7,10.9,4.3,17.7c0,0.1-0.1,0.2-0.1,0.3
	c-4.7,10.9-18.2,20.8-18.8,21.2C112.1,118.2,111.4,118.4,110.7,118.4z M100.3,83.1c-0.5,0-1.1,0.2-2,0.9c-4.8,3.9-2.5,9-2.2,9.6
	c0,0,0.1,0.1,0.1,0.2c3,6.8,10.7,13.7,14.5,16.7c3.7-3,11.4-9.8,14.4-16.6c0-0.1,0-0.1,0.1-0.2c1.1-2.8,1.6-6.7-2.2-9.7l0,0
	c-1.2-1-1.9-0.9-2.5-0.8c-2.7,0.6-5.7,5.5-6.6,7.6c-0.6,1.3-1.8,2.1-3.2,2.1l0,0c-1.4,0-2.6-0.8-3.2-2.1c-1-2.2-4-7-6.7-7.6
	C100.7,83.1,100.5,83.1,100.3,83.1z"/>
</svg>
