<?xml version="1.0" encoding="utf-8"?>
<!-- Generator: Adobe Illustrator 21.0.0, SVG Export Plug-In . SVG Version: 6.00 Build 0)  -->
<svg version="1.1" id="Out" xmlns="http://www.w3.org/2000/svg" xmlns:xlink="http://www.w3.org/1999/xlink" x="0px" y="0px"
	 viewBox="0 0 143 143" style="enable-background:new 0 0 143 143;" xml:space="preserve">
<g>
	<path d="M116.3,76.9c-1.9,0-3.5,1.6-3.5,3.5v30.4c0,3-1.9,5.6-4,5.6H31.5c-2.1,0-4-2.6-4-5.6V36.7c0-3,1.8-5.6,4-5.6h38.6
		c1.9,0,3.5-1.6,3.5-3.5s-1.6-3.5-3.5-3.5H31.5c-6.1,0-11,5.6-11,12.6v74.1c0,6.9,4.9,12.6,11,12.6h77.3c6.1,0,11-5.6,11-12.6V80.4
		C119.8,78.4,118.2,76.9,116.3,76.9z"/>
	<path d="M125.6,42.1L94.7,18.7c-1.5-1.2-3.7-0.9-4.9,0.7c-1.2,1.5-0.9,3.7,0.7,4.9l22.7,17.2C86.6,41.9,71,45.4,61.4,52.7
		C49.9,61.6,47.5,75.6,47.5,94c0,1.9,1.6,3.5,3.5,3.5s3.5-1.6,3.5-3.5c0-33.3,8.2-44.6,58.3-45.5L90.5,65.1
		c-1.6,1.2-1.9,3.3-0.7,4.9c0.7,0.9,1.7,1.4,2.8,1.4c0.7,0,1.5-0.2,2.1-0.7l30.9-23c0.9-0.7,1.4-1.7,1.4-2.8S126.5,42.8,125.6,42.1z
		"/>
</g>
</svg>
