<?xml version="1.0" encoding="utf-8"?>
<!-- Generator: Adobe Illustrator 21.0.0, SVG Export Plug-In . SVG Version: 6.00 Build 0)  -->
<svg version="1.1" id="paperclip" xmlns="http://www.w3.org/2000/svg" xmlns:xlink="http://www.w3.org/1999/xlink" x="0px" y="0px"
	 viewBox="0 0 143 143" style="enable-background:new 0 0 143 143;" xml:space="preserve">
<path d="M96.3,8.8c-1.9,0-3.5,1.6-3.5,3.5v95.1c0,6.8-8,19.5-23.2,19.5c-13.3,0-22.6-12.7-22.6-19.5V28.2c0-0.1,0-5.4,3.5-9
	c2.2-2.3,5.5-3.4,9.7-3.4c4.7,0,8.3,1.2,10.7,3.6c3.5,3.6,3.5,8.7,3.5,8.8v75.5c-0.2,1.1-1,5.1-4.8,5.1c-4.6,0-5.4-4-5.5-5.3V28.3
	c0-1.9-1.6-3.5-3.5-3.5s-3.5,1.6-3.5,3.5v75.4c0,0.1,0,0.2,0,0.2c0.3,4.1,3.3,11.9,12.5,11.9c8.4,0,11.4-7.5,11.8-11.5
	c0-0.1,0-0.2,0-0.4V28.3c0-0.3,0.1-8.1-5.5-13.8c-3.8-3.8-9.1-5.8-15.7-5.8c-6.2,0-11.1,1.9-14.7,5.5C40,20,40.1,28,40.1,28.3v79.1
	c0,10.7,12.4,26.5,29.6,26.5c18.7,0,30.2-15.4,30.2-26.5V12.3C99.8,10.4,98.3,8.8,96.3,8.8z"/>
</svg>
