<?xml version="1.0" encoding="utf-8"?>
<!-- Generator: Adobe Illustrator 21.0.0, SVG Export Plug-In . SVG Version: 6.00 Build 0)  -->
<svg version="1.1" id="pen" xmlns="http://www.w3.org/2000/svg" xmlns:xlink="http://www.w3.org/1999/xlink" x="0px" y="0px"
	 viewBox="0 0 143 143" style="enable-background:new 0 0 143 143;" xml:space="preserve">
<path d="M120.1,23.9c-0.1-0.1-0.3-0.3-0.4-0.4s-4.9-3.4-9.5-6.7c-0.1-0.1-0.2-0.1-0.3-0.2l-7.2-5.1c-3.9-2.8-9.6-1.6-12.6,2.7
	l-62.4,89c-0.1,0.1-8.8,13.3-7.2,22.2c0.4,2.5,1.7,4.5,3.6,5.9c1.7,1.2,3.4,1.7,5.2,1.7c9.6,0,19.9-14.4,20-14.6l42.2-60.1l0,0l0,0
	l20.2-28.8c0.5-0.7,0.8-1.4,1.1-2.1c1.2,0.8,2.1,1.5,2.6,1.8c0.5,0.6,1.1,1.6,0.3,2.7c-3.4,4.8-20.5,29.2-20.5,29.2l5.7,4
	c0,0,17.1-24.4,20.5-29.2C124.9,30.8,122.1,25.8,120.1,23.9z M43.5,114.3c-3.7,5.2-12.3,13.4-15.4,11.2l0,0
	c-0.2-0.1-0.5-0.4-0.7-1.3c-0.8-4.7,4.3-14.5,6-17L73.5,50l10.1,7L43.5,114.3z M106.4,23.3c0.1,0.6-0.1,1.4-0.5,2l-18.2,26
	l-10.1-7.1l18.3-26c0.6-0.8,1.4-1.2,2-1.2c0.2,0,0.4,0.1,0.6,0.1c0.1,0.1,0.1,0.1,0.2,0.2c1.5,1.1,4.4,3,7.3,5.1
	C106.2,22.7,106.3,23,106.4,23.3z"/>
</svg>
