<?xml version="1.0" encoding="utf-8"?>
<!-- Generator: Adobe Illustrator 21.0.0, SVG Export Plug-In . SVG Version: 6.00 Build 0)  -->
<svg version="1.1" id="phone" xmlns="http://www.w3.org/2000/svg" xmlns:xlink="http://www.w3.org/1999/xlink" x="0px" y="0px"
	 viewBox="0 0 143 143" style="enable-background:new 0 0 143 143;" xml:space="preserve">
<path d="M95.1,129.2c-2.9,0-6.2-0.4-9.9-1.1c-12-2.4-34-16.1-44.4-27.5C30.6,89.5,23.5,81.1,18.1,67.1c-5.8-14.9,3.4-26.8,3.7-27.3
	c0.1-0.1,0.2-0.2,0.2-0.3c0.2-0.2,4.1-4.2,9-8.7c5.5-5,11.8-2.3,14.7,0.8c0.3,0.3,9.8,9.8,13.7,13.9c4.5,4.7,2.5,10.5,0.1,13.2
	l-0.1,0.1L52,66.3c8.9,17.8,23.1,25.6,28.4,28c1.7-1.8,4.4-4.7,7-7.2c5.2-5,11.4-1.8,14,0.6c0.1,0.1,8.7,8.6,13.6,13.4
	c5.6,5.5,3.3,12.1,1.3,14.8c0,0.1-0.1,0.1-0.2,0.2c-0.2,0.3-5.8,6.8-8.9,9.5C104.5,128,100.4,129.2,95.1,129.2z M27.2,44.2
	c-0.9,1.2-6.7,9.8-2.6,20.4c5,13,11.4,20.5,21.3,31.3c10.3,11.3,31,23.4,40.7,25.4c7.9,1.6,13.5,1.3,16.2-1.1c2.2-1.9,6.4-6.7,8-8.6
	c0.5-0.8,1.8-3.2-0.7-5.6c-4.7-4.6-12.8-12.6-13.5-13.3c-0.5-0.5-2.7-2.2-4.4-0.6c-4.1,3.9-8.3,8.6-8.3,8.6c-0.9,1.1-2.4,1.4-3.7,1
	c-1-0.3-23.5-8.1-35.6-34.7c-0.6-1.3-0.3-2.9,0.7-3.9l9.1-9.3c0.6-0.7,1.4-2.2,0-3.7c-3.8-4-13.5-13.7-13.6-13.8c-1-1-3-2.4-5-0.5
	C31.5,39.8,28,43.4,27.2,44.2z"/>
<path d="M121.5,74.1c-1.6,0-3-1.1-3.4-2.7c-9.8-40.9-42.3-42.7-42.7-42.8C73.5,28.5,72,26.9,72,25c0.1-1.9,1.7-3.4,3.6-3.4
	c0.4,0,9.8,0.5,20.6,6.7c9.9,5.7,22.8,17.5,28.6,41.4c0.4,1.9-0.7,3.8-2.6,4.2C122,74.1,121.8,74.1,121.5,74.1z"/>
<path d="M102.2,74.2c-1.6,0-3.1-1.1-3.4-2.8C94.4,51,75.4,48.6,75.2,48.5c-1.9-0.2-3.3-2-3.1-3.9c0.2-1.9,2-3.3,3.9-3.1
	c0.2,0,24.3,3.1,29.6,28.4c0.4,1.9-0.8,3.7-2.7,4.1C102.6,74.1,102.4,74.2,102.2,74.2z"/>
</svg>
