<?xml version="1.0" encoding="utf-8"?>
<!-- Generator: Adobe Illustrator 21.0.0, SVG Export Plug-In . SVG Version: 6.00 Build 0)  -->
<svg version="1.1" id="Calque_1" xmlns="http://www.w3.org/2000/svg" xmlns:xlink="http://www.w3.org/1999/xlink" x="0px" y="0px"
	 viewBox="0 0 143 143" style="enable-background:new 0 0 143 143;" xml:space="preserve">
<style type="text/css">
	.st0{fill:none;stroke:#000000;stroke-width:7;stroke-linecap:round;stroke-linejoin:round;stroke-miterlimit:10;}
</style>
<g id="Image">
	<g>
		<path d="M121.4,120.9H22.9c-8.1,0-14.6-6.5-14.6-14.6V38.5c0-8.1,6.5-14.6,14.6-14.6h98.5c8,0,14.6,6.5,14.6,14.6v67.7
			C136,114.3,129.5,120.9,121.4,120.9z M22.9,30.9c-4.2,0-7.6,3.4-7.6,7.6v67.8c0,4.2,3.4,7.6,7.6,7.6h98.5c4.2,0,7.6-3.5,7.6-7.7
			V38.5c0-4.2-3.4-7.6-7.6-7.6H22.9z"/>
	</g>
	<g>
		<path class="st0" d="M120,65.8"/>
	</g>
	<g>
		<path class="st0" d="M75.6,85.4"/>
	</g>
	<g>
		<path d="M85.3,103.9c-1.1,0-2.1-0.5-2.8-1.4L55.7,66.9l-28.5,35.7c-1.2,1.5-3.4,1.8-4.9,0.6c-1.5-1.2-1.8-3.4-0.6-4.9L53.1,59
			c0.7-0.8,1.7-1.3,2.8-1.3c1.1,0,2.1,0.5,2.7,1.4l29.5,39.2c1.2,1.5,0.9,3.7-0.7,4.9C86.8,103.7,86,103.9,85.3,103.9z"/>
	</g>
	<g>
		<path d="M117.5,103.8c-1,0-2.1-0.5-2.7-1.3L93.8,76l-4.5,5.4c-1.2,1.5-3.4,1.7-4.9,0.4c-1.5-1.2-1.7-3.5-0.4-4.9l7.3-8.7
			c0.7-0.8,1.7-1.3,2.7-1.2c1.1,0,2,0.5,2.7,1.3l23.6,29.8c1.2,1.5,0.9,3.7-0.6,4.9C119,103.6,118.3,103.8,117.5,103.8z"/>
	</g>
	<g>
		<path d="M110.9,61.5c-7.3,0-13.3-6-13.3-13.3s6-13.3,13.3-13.3s13.3,6,13.3,13.3S118.2,61.5,110.9,61.5z M110.9,41.9
			c-3.5,0-6.3,2.8-6.3,6.3s2.8,6.3,6.3,6.3c3.5,0,6.3-2.8,6.3-6.3S114.4,41.9,110.9,41.9z"/>
	</g>
</g>
</svg>
