<?xml version="1.0" encoding="utf-8"?>
<!-- Generator: Adobe Illustrator 21.0.0, SVG Export Plug-In . SVG Version: 6.00 Build 0)  -->
<svg version="1.1" id="plane" xmlns="http://www.w3.org/2000/svg" xmlns:xlink="http://www.w3.org/1999/xlink" x="0px" y="0px"
	 viewBox="0 0 143 143" style="enable-background:new 0 0 143 143;" xml:space="preserve">
<g>
	<path d="M46.9,130.6c-0.1,0-0.2,0-0.3,0c-1.2-0.1-2.3-0.8-2.8-1.9L35,110.9l-17.7-8.8c-1.1-0.5-1.8-1.6-1.9-2.8
		c-0.1-1.2,0.4-2.4,1.4-3.1l10.8-7.9c0.7-0.5,1.7-0.8,2.6-0.6l10,1.5l21-25.7L21.4,33c-1-0.8-1.5-2.1-1.3-3.3
		c0.2-1.3,1.1-2.3,2.3-2.8L34,22.7c0,0,0.1,0,0.1,0c3.8-1.2,7.9-1.1,11.7,0.2l41.8,13.6l12.7-12.6c5.4-5.4,19.5-7.8,24.5-2.8
		c3.3,3.3,2.8,9.8,2.4,12.4c-0.7,5.1-2.7,9.6-5.2,12.1l-12.6,12.6l13.6,41.9c1.3,3.8,1.4,7.9,0.2,11.7c0,0,0,0.1,0,0.1l-4.2,11.7
		c-0.4,1.2-1.5,2.1-2.8,2.3c-1.3,0.2-2.5-0.3-3.3-1.3L82.5,84.8l-25.7,20.9l1.7,10.2c0.2,1-0.1,1.9-0.7,2.7l-8.1,10.6
		C49,130.1,48,130.6,46.9,130.6z M25.5,98.4l13.6,6.7c0.7,0.3,1.2,0.9,1.6,1.6l6.8,13.8l3.8-4.9l-1.8-10.7c-0.2-1.2,0.3-2.5,1.2-3.3
		l30.1-24.5c0.7-0.6,1.7-0.9,2.6-0.8c0.9,0.1,1.8,0.6,2.4,1.3l28.8,37.5l2-5.6c0.7-2.3,0.7-4.8-0.2-7.2l-14.3-44
		c-0.4-1.3-0.1-2.6,0.9-3.6l14.1-14.1c3.5-3.5,4.2-13.1,2.8-14.7c-1.5-1.5-11.1-0.8-14.6,2.8L91.1,43c-0.9,0.9-2.3,1.3-3.5,0.8
		L43.6,29.5c-2.5-0.9-5-0.9-7.3-0.2l-5.6,2l37.5,28.8c0.8,0.6,1.2,1.4,1.3,2.4c0.1,0.9-0.2,1.9-0.8,2.6l-24.5,30
		c-0.8,1-2,1.4-3.2,1.2l-10.6-1.6L25.5,98.4z"/>
</g>
</svg>
