<?xml version="1.0" encoding="utf-8"?>
<!-- Generator: Adobe Illustrator 21.0.0, SVG Export Plug-In . SVG Version: 6.00 Build 0)  -->
<svg version="1.1" id="pointer" xmlns="http://www.w3.org/2000/svg" xmlns:xlink="http://www.w3.org/1999/xlink" x="0px" y="0px"
	 viewBox="0 0 143 143" style="enable-background:new 0 0 143 143;" xml:space="preserve">
<path d="M80.8,129.5c-0.6,0-1.1-0.1-1.7-0.3c-1-0.3-2.5-1.2-3.4-3.2L62,92.6c-3.9,2.9-11.3,8.5-15.6,11.7c-0.8,0.7-3.1,2.3-5.6,1.2
	c-0.8-0.4-2.6-1.5-2.6-4.6V19.6c0-1.6,0.7-3.6,2.7-4.4c1.3-0.5,3.2-0.7,5.6,1.6c2.2,2.2,55.2,55.1,57.9,57.7c1,0.8,2.7,2.8,2.1,5.2
	c-0.2,0.8-1,2.7-3.9,3.1h-0.1c-1.8,0.2-16.1,2-22.4,2.8c3,7.6,12,29.8,12.8,31.7c2.5,5.4-1.2,7.5-1.9,7.9l-7.1,3.5
	C82.9,129.1,81.9,129.5,80.8,129.5z M80.4,122.6C80.3,122.6,80.3,122.6,80.4,122.6C80.3,122.6,80.3,122.6,80.4,122.6z M62.9,84.4
	c0.3,0,0.7,0,1,0.1c2.1,0.5,3.1,2.3,3.5,2.9c0.1,0.1,0.1,0.2,0.2,0.3l14.2,34.2l4.4-2.2c-1.3-3.2-12.9-32.1-13.7-33.9
	c-0.9-2.4-0.2-4,0.3-4.7c0.9-1.4,2.3-1.9,3.4-2.1c1.2-0.1,13.2-1.6,20.3-2.5C86.7,66.7,55.9,36,45.2,25.3v71.1
	c4.8-3.6,13.6-10.2,15.1-11.3C61.1,84.7,62,84.4,62.9,84.4z M45.1,101.1L45.1,101.1L45.1,101.1z M64.2,91L64.2,91L64.2,91z"/>
</svg>
