<?xml version="1.0" encoding="utf-8"?>
<!-- Generator: Adobe Illustrator 21.0.0, SVG Export Plug-In . SVG Version: 6.00 Build 0)  -->
<svg version="1.1" id="popin" xmlns="http://www.w3.org/2000/svg" xmlns:xlink="http://www.w3.org/1999/xlink" x="0px" y="0px"
	 viewBox="0 0 143 143" style="enable-background:new 0 0 143 143;" xml:space="preserve">
<path d="M33.3,94.5H28c-5.2,0-9.5-4.3-9.5-9.5V36c0-5.2,4.3-9.5,9.5-9.5h61.9c5.2,0,9.5,4.3,9.5,9.5v4.2c0,1.9-1.6,3.5-3.5,3.5
	s-3.5-1.6-3.5-3.5V36c0-1.4-1.1-2.5-2.5-2.5H28c-1.4,0-2.5,1.1-2.5,2.5v49c0,1.4,1.1,2.5,2.5,2.5h5.3c1.9,0,3.5,1.6,3.5,3.5
	S35.2,94.5,33.3,94.5z"/>
<path d="M114.9,118.5H53c-5.2,0-9.5-4.3-9.5-9.5V60c0-5.2,4.3-9.5,9.5-9.5h61.9c5.2,0,9.5,4.3,9.5,9.5v49
	C124.4,114.3,120.2,118.5,114.9,118.5z M53,57.5c-1.4,0-2.5,1.1-2.5,2.5v49c0,1.4,1.1,2.5,2.5,2.5h61.9c1.4,0,2.5-1.1,2.5-2.5V60
	c0-1.4-1.1-2.5-2.5-2.5H53z"/>
</svg>
