<?xml version="1.0" encoding="utf-8"?>
<!-- Generator: Adobe Illustrator 21.0.0, SVG Export Plug-In . SVG Version: 6.00 Build 0)  -->
<svg version="1.1" id="Calque_1" xmlns="http://www.w3.org/2000/svg" xmlns:xlink="http://www.w3.org/1999/xlink" x="0px" y="0px"
	 viewBox="0 0 143 143" style="enable-background:new 0 0 143 143;" xml:space="preserve">
<g id="Question-XS">
	<g>
		<circle cx="68.9" cy="127.2" r="6.9"/>
		<path d="M68.9,113c-3.9,0-7-3.1-7-7V86.4c0-14,10.4-19.8,18-24c8.1-4.5,12.3-7.2,12.3-14.8c0-9.9-8.2-23.7-23.7-23.7
			c-17.1,0-22.9,16.3-22.9,23.7c0,3.9-3.1,7-7,7s-7-3.1-7-7c0-15.2,11.7-37.7,36.9-37.7c23.3,0,37.7,19.6,37.7,37.7
			c0,16.1-11.3,22.4-19.5,27c-7.8,4.4-10.8,6.5-10.8,11.8V106C75.9,109.9,72.8,113,68.9,113z"/>
	</g>
</g>
</svg>
