<?xml version="1.0" encoding="utf-8"?>
<!-- Generator: Adobe Illustrator 21.0.0, SVG Export Plug-In . SVG Version: 6.00 Build 0)  -->
<svg version="1.1" id="Question-SM" xmlns="http://www.w3.org/2000/svg" xmlns:xlink="http://www.w3.org/1999/xlink" x="0px"
	 y="0px" viewBox="0 0 143 143" style="enable-background:new 0 0 143 143;" xml:space="preserve">
<g>
	<path d="M69.5,110.8c-1.9,0-3.5-1.6-3.5-3.5V87.7c0-11.9,8.6-16.7,16.2-21c7.6-4.2,14.1-7.9,14.1-17.9c0-11.4-9.4-27.2-27.2-27.2
		c-19.8,0-26.4,18.7-26.4,27.2c0,1.9-1.6,3.5-3.5,3.5s-3.5-1.6-3.5-3.5c0-13.8,10.6-34.2,33.4-34.2c22.3,0,34.2,19.8,34.2,34.2
		c0,14.1-9.8,19.6-17.7,24C77.8,77.2,73,80.2,73,87.7v19.6C73,109.2,71.4,110.8,69.5,110.8z"/>
	<circle cx="69.5" cy="124.5" r="4.3"/>
</g>
</svg>
