<?xml version="1.0" encoding="utf-8"?>
<!-- Generator: Adobe Illustrator 21.0.0, SVG Export Plug-In . SVG Version: 6.00 Build 0)  -->
<svg version="1.1" id="quote-left" xmlns="http://www.w3.org/2000/svg" xmlns:xlink="http://www.w3.org/1999/xlink" x="0px" y="0px"
	 viewBox="0 0 143 143" style="enable-background:new 0 0 143 143;" xml:space="preserve">
<path d="M76.6,116.9c-0.8,0-1.7-0.3-2.4-0.9L26.5,72.7C25.8,72,25.3,71,25.4,70c0-1,0.5-2,1.3-2.6L74.4,29c1.5-1.2,3.7-1,4.9,0.5
	c1.2,1.5,1,3.7-0.5,4.9L34.3,70.2L79,110.8c1.4,1.3,1.5,3.5,0.2,4.9C78.5,116.5,77.5,116.9,76.6,116.9z"/>
<path d="M112.1,116.9c-0.8,0-1.7-0.3-2.4-0.9L62,72.7C61.3,72,60.9,71,60.9,70s0.5-2,1.3-2.6L109.9,29c1.5-1.2,3.7-1,4.9,0.5
	c1.2,1.5,1,3.7-0.5,4.9L69.8,70.2l44.7,40.6c1.4,1.3,1.5,3.5,0.2,4.9C114,116.5,113,116.9,112.1,116.9z"/>
</svg>
