<?xml version="1.0" encoding="utf-8"?>
<!-- Generator: Adobe Illustrator 21.0.0, SVG Export Plug-In . SVG Version: 6.00 Build 0)  -->
<svg version="1.1" id="quote-right" xmlns="http://www.w3.org/2000/svg" xmlns:xlink="http://www.w3.org/1999/xlink" x="0px"
	 y="0px" viewBox="0 0 143 143" style="enable-background:new 0 0 143 143;" xml:space="preserve">
<path d="M64.4,116.9c-1,0-2-0.4-2.7-1.3c-1.2-1.5-1-3.7,0.5-4.9l44.5-35.9L62.1,34.2c-1.4-1.3-1.5-3.5-0.2-4.9s3.5-1.5,4.9-0.2
	l47.7,43.3c0.8,0.7,1.2,1.7,1.1,2.7c0,1-0.5,2-1.3,2.6l-47.7,38.4C66,116.6,65.2,116.9,64.4,116.9z"/>
<path d="M28.9,116.9c-1,0-2-0.4-2.7-1.3c-1.2-1.5-1-3.7,0.5-4.9l44.5-35.9L26.5,34.2c-1.4-1.3-1.5-3.5-0.2-4.9s3.5-1.5,4.9-0.2
	l47.7,43.3c0.8,0.7,1.2,1.7,1.1,2.7c0,1-0.5,2-1.3,2.6L31,116.1C30.4,116.6,29.7,116.9,28.9,116.9z"/>
</svg>
