<?xml version="1.0" encoding="utf-8"?>
<!-- Generator: Adobe Illustrator 21.0.0, SVG Export Plug-In . SVG Version: 6.00 Build 0)  -->
<svg version="1.1" id="refresh-bold" xmlns="http://www.w3.org/2000/svg" xmlns:xlink="http://www.w3.org/1999/xlink" x="0px"
	 y="0px" viewBox="0 0 143 143" style="enable-background:new 0 0 143 143;" xml:space="preserve">
<path d="M119.2,97.3c0-1.9-0.7-3.7-2.1-5.1s-3.4-2.2-5.4-2L86.4,92c-3.9,0.3-6.8,3.6-6.5,7.5s3.6,6.8,7.5,6.5l8.9-0.6
	c-7,5.4-15.7,8.6-24.7,8.6c-22.2,0-40.2-18-40.2-40.2c0-3.9-3.1-7-7-7s-7,3.1-7,7c0,29.9,24.3,54.2,54.2,54.2
	c11.8,0,23.1-3.9,32.3-10.7l-0.3,5c-0.3,3.9,2.7,7.2,6.5,7.4c0.2,0,0.3,0,0.5,0c3.7,0,6.7-2.8,7-6.5l1.6-24.3
	C119.2,98.3,119.3,97.8,119.2,97.3z"/>
<path d="M125.6,68.9c-1.2-13.4-7.3-25.9-17.3-35c-10-9.2-23.1-14.3-36.7-14.3c-10.4,0-20.4,3-29,8.5l1-6.7c0.6-3.8-2.1-7.4-5.9-7.9
	c-3.8-0.6-7.4,2.1-7.9,5.9L26,44.6c-0.3,2,0.3,4,1.6,5.6c1.3,1.5,3.2,2.4,5.3,2.4l25.4,0.1l0,0c3.8,0,7-3.1,7-7s-3.1-7-7-7h-6.5
	c5.9-3.3,12.7-5.2,19.8-5.2c21,0,38.2,15.7,40,36.6c0.3,3.6,3.4,6.4,7,6.4c0.2,0,0.4,0,0.6,0C123.1,76.1,125.9,72.7,125.6,68.9z"/>
</svg>
