<?xml version="1.0" encoding="utf-8"?>
<!-- Generator: Adobe Illustrator 21.0.0, SVG Export Plug-In . SVG Version: 6.00 Build 0)  -->
<svg version="1.1" id="refresh" xmlns="http://www.w3.org/2000/svg" xmlns:xlink="http://www.w3.org/1999/xlink" x="0px" y="0px"
	 viewBox="0 0 143 143" style="enable-background:new 0 0 143 143;" xml:space="preserve">
<path d="M114.6,96.7c-0.2-0.7-0.6-1.4-1.2-1.9c-0.8-0.6-1.8-0.9-2.8-0.8l-25,4.2c-1.9,0.3-3.2,2.1-2.9,4c0.3,1.9,2.1,3.2,4,2.9
	l16.7-2.8c-8.2,9.4-20.2,15-32.9,15c-24.1,0-43.7-19.6-43.7-43.7c0-1.9-1.6-3.5-3.5-3.5s-3.5,1.6-3.5,3.5c0,28,22.7,50.7,50.7,50.7
	c14.3,0,27.9-6.2,37.4-16.5l0.4,15.3c0.1,1.9,1.6,3.4,3.5,3.4h0.1c1.9-0.1,3.5-1.7,3.4-3.6l-0.7-25.3
	C114.7,97.3,114.7,97,114.6,96.7z"/>
<path d="M104.9,36.3c-9.4-8.6-21.6-13.4-34.3-13.4c-12.5,0-24.5,4.7-33.7,12.9l1-15.6c0.1-1.9-1.3-3.6-3.3-3.7
	c-1.9-0.1-3.6,1.3-3.7,3.3l-1.7,25.4l0,0c0,0.2,0,0.5,0,0.7V46c0,0.2,0.1,0.4,0.2,0.6c0,0.1,0.1,0.1,0.1,0.2
	c0.1,0.1,0.1,0.3,0.2,0.4c0,0.1,0.1,0.1,0.2,0.2c0.1,0.1,0.2,0.2,0.3,0.3c0,0,0,0.1,0.1,0.1c0.1,0.1,0.1,0.1,0.2,0.2
	c0.1,0.1,0.1,0.1,0.2,0.2h0.1c0.1,0.1,0.2,0.1,0.3,0.2c0.1,0.1,0.2,0.1,0.3,0.2c0.1,0,0.2,0.1,0.3,0.1c0.1,0,0.2,0.1,0.3,0.1
	c0.1,0,0.2,0,0.3,0s0.2,0,0.4,0h0.1c0.1,0,0.2,0,0.3,0L58.4,47c1.9-0.1,3.4-1.8,3.2-3.7c-0.1-1.9-1.8-3.4-3.7-3.2l-16.6,1.2
	c8-7.3,18.3-11.4,29.5-11.4c22.8,0,41.5,17.1,43.5,39.8c0.2,1.8,1.7,3.2,3.5,3.2c0.1,0,0.2,0,0.3,0c1.9-0.2,3.3-1.9,3.2-3.8
	C120,56.5,114.2,44.9,104.9,36.3z"/>
</svg>
