<?xml version="1.0" encoding="utf-8"?>
<!-- Generator: Adobe Illustrator 21.0.0, SVG Export Plug-In . SVG Version: 6.00 Build 0)  -->
<svg version="1.1" id="satchel" xmlns="http://www.w3.org/2000/svg" xmlns:xlink="http://www.w3.org/1999/xlink" x="0px" y="0px"
	 viewBox="0 0 143 143" style="enable-background:new 0 0 143 143;" xml:space="preserve">
<path d="M115.5,94.1c-1.9,0-3.5,1.6-3.5,3.5v18H29v-18c0-1.9-1.6-3.5-3.5-3.5S22,95.6,22,97.6v20.3c0,2.7,2.3,4.7,5.3,4.7h86.4
	c3,0,5.3-2.1,5.3-4.7V97.6C119,95.6,117.4,94.1,115.5,94.1z"/>
<path d="M117.5,41.1h-94c-2.9,0-5.3,2.4-5.3,5.3v39.7c0,2.9,2.4,5.3,5.3,5.3h31.3c0.7,5.5,5.4,9.7,11,9.7h11.7
	c5.6,0,10.3-4.2,11-9.7h29c2.9,0,5.3-2.4,5.3-5.3V46.4C122.8,43.5,120.5,41.1,117.5,41.1z M81.6,89.9c0,2.3-1.9,4.1-4.1,4.1H65.8
	c-2.3,0-4.1-1.9-4.1-4.1v-4c0-2.3,1.9-4.1,4.1-4.1h11.7c2.3,0,4.1,1.9,4.1,4.1V89.9z M115.8,84.4H88.5c-0.7-5.4-5.4-9.6-11-9.6H65.8
	c-5.6,0-10.3,4.2-11,9.6H25.2V48.1h90.7L115.8,84.4L115.8,84.4z"/>
<path d="M57.3,38.8c1.9,0,3.5-1.6,3.5-3.5v-5.9h0.1h21.5h0.1l-0.1,5.8c0,1.9,1.5,3.5,3.5,3.5l0,0c1.9,0,3.5-1.5,3.5-3.5l0.1-7
	c0-3.3-3.1-5.9-7.1-5.9H60.9c-4,0-7.1,2.6-7.1,5.9v6.9C53.8,37.2,55.3,38.8,57.3,38.8z"/>
</svg>
