<?xml version="1.0" encoding="utf-8"?>
<!-- Generator: Adobe Illustrator 21.0.0, SVG Export Plug-In . SVG Version: 6.00 Build 0)  -->
<svg version="1.1" id="Calque_1" xmlns="http://www.w3.org/2000/svg" xmlns:xlink="http://www.w3.org/1999/xlink" x="0px" y="0px"
	 viewBox="0 0 143 143" style="enable-background:new 0 0 143 143;" xml:space="preserve">
<g id="Calendrier-SM">
	<g>
		<path d="M109.3,124.8H32.8c-7.8,0-14.2-6.4-14.2-14.2V48.1c0-7.8,6.4-14.2,14.2-14.2h4.8c1.9,0,3.5,1.6,3.5,3.5v11.7
			c0,1.3,1.1,2.4,2.4,2.4h5.8c1.3,0,2.4-1.1,2.4-2.4V37.4c0-1.9,1.6-3.5,3.5-3.5h31.1c1.9,0,3.5,1.6,3.5,3.5v11.7
			c0,1.3,1.1,2.4,2.4,2.4H98c1.3,0,2.4-1.1,2.4-2.4V37.4c0-1.9,1.6-3.5,3.5-3.5h5.6c3.8,0,7.4,1.5,10.1,4.2s4.1,6.2,4,10v62.5
			C123.5,118.4,117.1,124.8,109.3,124.8z M32.8,40.9c-4,0-7.2,3.2-7.2,7.2v62.5c0,4,3.2,7.2,7.2,7.2h76.5c4,0,7.2-3.2,7.2-7.2V48.1
			c0-1.9-0.7-3.7-2-5c-1.3-1.4-3.1-2.1-5.1-2.1h-2.1v8.2c0,5.2-4.2,9.4-9.4,9.4h-5.8c-5.2,0-9.4-4.2-9.4-9.4V41h-24v8.2
			c0,5.2-4.2,9.4-9.4,9.4h-5.8c-5.2,0-9.4-4.2-9.4-9.4V41L32.8,40.9L32.8,40.9z"/>
	</g>
	<g>
		<path d="M46.3,49.2c-1.9,0-3.5-1.6-3.5-3.5V20.4c0-1.9,1.6-3.5,3.5-3.5s3.5,1.6,3.5,3.5v25.3C49.8,47.6,48.2,49.2,46.3,49.2z"/>
	</g>
	<g>
		<path d="M94.9,49.2c-1.9,0-3.5-1.6-3.5-3.5V20.4c0-1.9,1.6-3.5,3.5-3.5s3.5,1.6,3.5,3.5v25.3C98.4,47.6,96.8,49.2,94.9,49.2z"/>
	</g>
	<g>
		<path d="M49.9,86.4H38.1c-3.3,0-5.9-2.7-5.9-5.9v-8.6c0-3.3,2.7-5.9,5.9-5.9h11.8c3.3,0,5.9,2.7,5.9,5.9v8.6
			C55.8,83.8,53.1,86.4,49.9,86.4z M39.2,79.4h9.6V73h-9.6C39.2,73,39.2,79.4,39.2,79.4z"/>
	</g>
	<g>
		<path d="M77,86.4H65.3c-3.3,0-5.9-2.7-5.9-5.9v-8.6c0-3.3,2.7-5.9,5.9-5.9H77c3.3,0,5.9,2.7,5.9,5.9v8.6
			C82.9,83.8,80.3,86.4,77,86.4z M66.4,79.4h9.5V73h-9.5V79.4z"/>
	</g>
	<g>
		<path d="M104.3,86.4H92.6c-3.3,0-5.9-2.7-5.9-5.9v-8.6c0-3.3,2.7-5.9,5.9-5.9h11.7c3.3,0,5.9,2.7,5.9,5.9v8.6
			C110.2,83.8,107.5,86.4,104.3,86.4z M93.7,79.4h9.5V73h-9.5V79.4z"/>
	</g>
	<g>
		<path d="M49.9,110.7H38.1c-3.3,0-5.9-2.7-5.9-5.9v-8.6c0-3.3,2.7-5.9,5.9-5.9h11.8c3.3,0,5.9,2.7,5.9,5.9v8.6
			C55.8,108,53.1,110.7,49.9,110.7z M39.2,103.7h9.6v-6.5h-9.6C39.2,97.2,39.2,103.7,39.2,103.7z"/>
	</g>
	<g>
		<path d="M77,110.7H65.3c-3.3,0-5.9-2.7-5.9-5.9v-8.6c0-3.3,2.7-5.9,5.9-5.9H77c3.3,0,5.9,2.7,5.9,5.9v8.6
			C82.9,108.1,80.3,110.7,77,110.7z M66.4,103.7h9.5v-6.5h-9.5V103.7z"/>
	</g>
</g>
</svg>
