<?xml version="1.0" encoding="utf-8"?>
<!-- Generator: Adobe Illustrator 21.0.0, SVG Export Plug-In . SVG Version: 6.00 Build 0)  -->
<svg version="1.1" id="search" xmlns="http://www.w3.org/2000/svg" xmlns:xlink="http://www.w3.org/1999/xlink" x="0px" y="0px"
	 viewBox="0 0 143 143" style="enable-background:new 0 0 143 143;" xml:space="preserve">
<path d="M124.9,122.5L77.1,74.4c5.2-6.1,8.3-14.1,8.3-22.7c0-19.5-15.8-35.3-35.3-35.3S14.9,32.2,14.9,51.7S30.7,87,50.2,87
	c8.3,0,15.9-2.9,21.9-7.7l47.9,48.2c0.7,0.7,1.6,1,2.5,1s1.8-0.3,2.5-1C126.3,126.1,126.3,123.9,124.9,122.5z M21.9,51.7
	c0-15.6,12.7-28.3,28.3-28.3s28.3,12.7,28.3,28.3S65.7,79.9,50.1,79.9S21.9,67.3,21.9,51.7z"/>
</svg>
