<?xml version="1.0" encoding="utf-8"?>
<!-- Generator: Adobe Illustrator 21.0.0, SVG Export Plug-In . SVG Version: 6.00 Build 0)  -->
<svg version="1.1" id="search-bold" xmlns="http://www.w3.org/2000/svg" xmlns:xlink="http://www.w3.org/1999/xlink" x="0px"
	 y="0px" viewBox="0 0 143 143" style="enable-background:new 0 0 143 143;" xml:space="preserve">
<path d="M127.4,120L81.7,74.1c4.5-6.3,7.2-14.1,7.2-22.5c0-21.4-17.4-38.8-38.8-38.8S11.4,30.3,11.4,51.7s17.4,38.8,38.8,38.8
	c8,0,15.4-2.4,21.6-6.6l45.8,46c1.4,1.4,3.2,2.1,5,2.1s3.6-0.7,4.9-2C130.1,127.2,130.1,122.8,127.4,120z M25.4,51.7
	c0-13.7,11.1-24.8,24.8-24.8S75,38,75,51.7S63.8,76.4,50.1,76.4S25.4,65.3,25.4,51.7z"/>
</svg>
