<?xml version="1.0" encoding="utf-8"?>
<!-- Generator: Adobe Illustrator 21.0.0, SVG Export Plug-In . SVG Version: 6.00 Build 0)  -->
<svg version="1.1" id="shop" xmlns="http://www.w3.org/2000/svg" xmlns:xlink="http://www.w3.org/1999/xlink" x="0px" y="0px"
	 viewBox="0 0 143 143" style="enable-background:new 0 0 143 143;" xml:space="preserve">
<path d="M123.2,55.5L110.8,25c-0.5-1.3-1.8-2.2-3.2-2.2H33.2c-1.4,0-2.7,0.9-3.2,2.2L17.8,55.5c-0.2,0.4-0.3,0.9-0.3,1.3
	c0,7.4,6,13.4,13.4,13.4c3.9,0,7.4-1.7,9.9-4.4c2.5,2.7,6,4.4,9.9,4.4c4,0,7.6-1.8,10-4.5c2.5,2.8,6,4.5,10,4.5
	c3.8,0,7.4-1.7,9.8-4.4c2.4,2.7,6,4.4,9.9,4.4s7.4-1.7,9.9-4.3c2.5,2.7,6,4.3,9.9,4.3c7.4,0,13.4-6,13.4-13.4
	C123.5,56.3,123.4,55.9,123.2,55.5z M110.1,63.2c-3.5,0-6.3-2.8-6.4-6.1l0,0l0,0l0,0l0,0l0,0l0,0l0,0l0,0l0,0c0-0.4,0-0.5-1.9-8.6
	c-0.8-3.3-1.7-7-1.8-7.5c-0.3-1.6-1.7-2.8-3.4-2.8c-1.9,0-3.5,1.6-3.5,3.5l0,0l0,0l0,0l0,0l0,0c0,0.4,0,0.5,1.9,8.5
	c0.7,2.8,1.4,6.1,1.7,7.3c-0.3,3.3-3,5.8-6.3,5.8c-3.5,0-6.3-2.7-6.4-6.1l0,0l0,0c0-0.2,0-0.3-0.5-6.5c-0.2-2.2-0.5-5.2-0.8-9.3
	c-0.2-1.9-1.8-3.3-3.6-3.2c-1.9,0.1-3.3,1.6-3.3,3.5c0,0.1,0,0.1,0,0.3l0,0c0,0.1,0,0.3,0,0.4c0.1,0.7,0.2,2.2,0.5,5.4
	c0.1,0.6,0.1,1.3,0.2,2c0.3,3.6,0.6,6.7,0.6,7.5c-0.2,3.4-3,6.1-6.4,6.1c-3.5,0-6.3-2.8-6.4-6.3L65.4,42c0.1-1.9-1.3-3.6-3.2-3.7
	c-1.9-0.2-3.6,1.3-3.8,3.2l-1.4,15c0,0.1,0,0.2,0,0.3c0,3.5-2.9,6.4-6.4,6.4c-3.4,0-6.1-2.6-6.4-5.9c0.3-1.1,1-4.3,1.7-7.2
	c0.8-3.6,1.3-5.5,1.6-6.7c0.1-0.4,0.2-0.7,0.3-1l0,0c0.1-0.5,0.1-0.6,0.1-0.8c0-1.8-1.3-3.3-3.1-3.5S41.4,39,41,40.8
	c-1.7,7.2-2.6,11.1-3.1,13.3c-0.6,2.6-0.6,2.7-0.6,3c0,3.5-2.9,6.3-6.4,6.3c-3.3,0-6-2.5-6.3-5.8l11-27.5h69.7l11.2,27.5
	C116.2,60.6,113.4,63.2,110.1,63.2z"/>
<path d="M115,74.3c-1.9,0-3.5,1.6-3.5,3.5v36.4H52.7V77.6c0-1.9-1.6-3.5-3.5-3.5s-3.5,1.6-3.5,3.5v36.5H29.4V77.8
	c0-1.9-1.6-3.5-3.5-3.5s-3.5,1.6-3.5,3.5v39.9c0,1.9,1.6,3.5,3.5,3.5H115c1.9,0,3.5-1.6,3.5-3.5V77.8
	C118.5,75.8,116.9,74.3,115,74.3z"/>
<path d="M100.8,104.7c2.6,0,4.7-2.1,4.7-4.7V79.8c0-2.6-2.1-4.7-4.7-4.7H63.2c-2.6,0-4.7,2.1-4.7,4.7V100c0,2.6,2.1,4.7,4.7,4.7
	H100.8L100.8,104.7z M65.5,82.1h33.1v15.6H65.5V82.1z"/>
</svg>
