<?xml version="1.0" encoding="utf-8"?>
<!-- Generator: Adobe Illustrator 21.0.0, SVG Export Plug-In . SVG Version: 6.00 Build 0)  -->
<svg version="1.1" id="trees" xmlns="http://www.w3.org/2000/svg" xmlns:xlink="http://www.w3.org/1999/xlink" x="0px" y="0px"
	 viewBox="0 0 143 143" style="enable-background:new 0 0 143 143;" xml:space="preserve">
<path d="M45.4,32.1c-14.3,0-25.9,12.3-25.9,27.3c0,13.6,9.4,24.8,21.7,27V125c0,1.9,1.6,3.5,3.5,3.5s3.5-1.6,3.5-3.5V86.6
	c13-1.5,23.1-13.1,23.1-27.2C71.3,44.3,59.7,32.1,45.4,32.1z M48.2,79.5v-6.4l8.5-9.9c1.3-1.5,1.1-3.7-0.4-4.9
	c-1.5-1.3-3.7-1.1-4.9,0.4l-6.7,7.7l-3-3.8c-1.2-1.5-3.4-1.7-4.9-0.5s-1.7,3.4-0.5,4.9l4.9,6.1v6.2c-8.4-2.1-14.7-10.2-14.7-19.8
	c0-11.2,8.5-20.3,18.9-20.3s18.9,9.1,18.9,20.3C64.3,69.6,57.3,78,48.2,79.5z"/>
<path d="M121,57.2c0-24-10.2-42.8-23.2-42.8S74.5,33.3,74.5,57.2c0,21.8,8.4,39.3,19.7,42.3V125c0,1.9,1.6,3.5,3.5,3.5
	s3.5-1.6,3.5-3.5V99.6C112.6,96.5,121,79,121,57.2z M101.3,92V73.6c0-1.9-1.6-3.5-3.5-3.5s-3.5,1.6-3.5,3.5V92
	c-6.6-3.6-12.7-16.9-12.7-34.8c0-21.1,8.6-35.8,16.2-35.8S114,36.2,114,57.2C114,75.2,107.8,88.4,101.3,92z"/>
</svg>
