<?xml version="1.0" encoding="utf-8"?>
<!-- Generator: Adobe Illustrator 21.0.0, SVG Export Plug-In . SVG Version: 6.00 Build 0)  -->
<svg version="1.1" id="truck" xmlns="http://www.w3.org/2000/svg" xmlns:xlink="http://www.w3.org/1999/xlink" x="0px" y="0px"
	 viewBox="0 0 143 143" style="enable-background:new 0 0 143 143;" xml:space="preserve">
<path d="M19.4,106H16c-1.8,0-3.2-1.3-3.5-3L9,76.4c0-0.1,0-0.3,0-0.4c-0.1-3.5,1.8-7.5,6.2-8.1c2.1-0.3,5-0.6,6.9-0.7l8.6-15.7
	c0.6-1.1,1.8-1.8,3.1-1.8h14.7c1.9,0,3.5,1.6,3.5,3.5s-1.6,3.5-3.5,3.5H35.8l-8.6,15.5c-0.6,1-1.6,1.7-2.8,1.8
	c-0.1,0-5.1,0.4-8.2,0.8C16.1,75,16,75.4,16,75.7L19.1,99h0.3c1.9,0,3.5,1.6,3.5,3.5S21.3,106,19.4,106z"/>
<path d="M130.5,91.1h-4.1c-1.9,0-3.5-1.6-3.5-3.5s1.6-3.5,3.5-3.5h0.6V44H62.1v40.1h31.3c1.9,0,3.5,1.6,3.5,3.5s-1.6,3.5-3.5,3.5
	H58.6c-1.9,0-3.5-1.6-3.5-3.5V40.5c0-1.9,1.6-3.5,3.5-3.5h71.9c1.9,0,3.5,1.6,3.5,3.5v47.1C134,89.5,132.4,91.1,130.5,91.1z"/>
<path d="M90.2,106H58.6c-1.9,0-3.5-1.6-3.5-3.5s1.6-3.5,3.5-3.5h31.6c1.9,0,3.5,1.6,3.5,3.5S92.1,106,90.2,106z"/>
<path d="M38.8,114.4c-7.3,0-13.2-5.9-13.2-13.2S31.5,88,38.8,88S52,93.9,52,101.2S46.1,114.4,38.8,114.4z M38.8,94.9
	c-3.4,0-6.2,2.8-6.2,6.2s2.8,6.2,6.2,6.2s6.2-2.8,6.2-6.2S42.3,94.9,38.8,94.9z"/>
<path d="M110.2,114.4c-7.3,0-13.2-5.9-13.2-13.2S102.9,88,110.2,88s13.2,5.9,13.2,13.2S117.5,114.4,110.2,114.4z M110.2,94.9
	c-3.4,0-6.2,2.8-6.2,6.2s2.8,6.2,6.2,6.2s6.2-2.8,6.2-6.2S113.6,94.9,110.2,94.9z"/>
</svg>
