<?xml version="1.0" encoding="utf-8"?>
<!-- Generator: Adobe Illustrator 21.0.0, SVG Export Plug-In . SVG Version: 6.00 Build 0)  -->
<svg version="1.1" id="user" xmlns="http://www.w3.org/2000/svg" xmlns:xlink="http://www.w3.org/1999/xlink" x="0px" y="0px"
	 viewBox="0 0 143 143" style="enable-background:new 0 0 143 143;" xml:space="preserve">
<path d="M131.5,120.8c-1.8,0-3.4-1.4-3.5-3.2c-0.9-12.1-4.8-14-7-14.9l-0.4-0.1c-30.2-8.6-40.3-11.4-41.5-19
	c-1.1-6.4,1.4-11.9,5.2-20.2c2.1-4.6,5.2-19.9-0.4-28.5c-2.6-4-6.7-6-12.6-6c-6,0-10.2,2.1-12.8,6.3c-5.1,8.3-2.7,23.1-0.1,28.4
	C62.7,72,63,74,63.8,81.9v0.3c0.9,9-14.4,12.8-30.5,16.9c-3.3,0.8-6.5,1.6-9.1,2.4c-10.3,3-9.5,15.4-9.5,15.5
	c0.1,1.9-1.3,3.6-3.2,3.8c-1.9,0.1-3.6-1.3-3.8-3.2c-0.5-6.3,2-19.1,14.5-22.7c2.8-0.8,5.9-1.6,9.3-2.5c5.9-1.5,12.5-3.2,17.6-5
	c7.1-2.7,7.6-4.4,7.7-4.4v-0.2c-0.7-7.2-0.8-8.3-4.6-15.8c-3.4-7-6.2-24.6,0.4-35.4c2.7-4.4,8.1-9.6,18.8-9.6
	c10.4,0,15.8,5,18.5,9.2c6.9,10.8,3.9,28.6,0.8,35.2c-3.8,8.2-5.4,12-4.7,16.1c0.5,3.2,15.6,7.4,36.5,13.3L123,96
	c0.1,0,0.2,0.1,0.4,0.1c7.2,2.9,10.7,9.4,11.6,21c0.1,1.9-1.3,3.6-3.2,3.7C131.7,120.8,131.6,120.8,131.5,120.8z"/>
</svg>
