<?xml version="1.0" encoding="utf-8"?>
<!-- Generator: Adobe Illustrator 21.0.0, SVG Export Plug-In . SVG Version: 6.00 Build 0)  -->
<svg version="1.1" id="user-bold" xmlns="http://www.w3.org/2000/svg" xmlns:xlink="http://www.w3.org/1999/xlink" x="0px" y="0px"
	 viewBox="0 0 143 143" style="enable-background:new 0 0 143 143;" xml:space="preserve">
<path d="M14.8,121.7c-3.6,0-6.7-2.8-7-6.5C7.3,108.3,10,94.1,24.1,90c2.5-0.7,5.3-1.4,8.2-2.2c5.7-1.5,17-4.4,20.5-6.8
	c-0.1-1-0.1-1.9-0.2-2.7c-0.2-3.7-0.3-4.8-2.6-9.5c-3.4-6.6-8.1-25.3-0.5-37.7c3.1-5,9.3-10.9,21.8-10.9s18.8,5.7,21.9,10.5
	c8.1,12.6,2.5,31.4-0.4,37.6c-3,6.6-3.6,9.6-3.2,12.3c3.2,2.5,18.1,6.7,31.4,10.4c0.2,0.1,0.5,0.2,0.7,0.3
	c8.1,3.3,12.3,10.6,13.2,22.9c0.3,3.9-2.6,7.2-6.5,7.5c-3.9,0.3-7.2-2.6-7.5-6.5c-0.6-8.7-2.8-10.2-4.2-10.8
	c-28.6-8-39.3-11.1-40.9-20.8c-1.3-7.3,0.7-13.5,4.2-21.2c2.5-5.5,5.1-18.2,1.3-24.2c-0.6-1-2.6-4.1-10.1-4.1
	c-6.6,0-8.8,2.4-9.9,4.2c-4.2,6.8-0.9,20.1,1.1,24c3.5,7,3.8,10.1,4.1,15c0.1,1.1,0.1,2.3,0.3,3.8c1.1,11.7-14.5,15.7-31.1,20
	c-2.8,0.7-5.5,1.4-7.8,2.1c-6.8,2-6.3,10.7-6.3,10.8c0.3,3.9-2.6,7.2-6.5,7.5C15.1,121.7,14.9,121.7,14.8,121.7z M53,82.7L53,82.7
	L53,82.7z"/>
</svg>
