<?xml version="1.0" encoding="utf-8"?>
<!-- Generator: Adobe Illustrator 21.0.0, SVG Export Plug-In . SVG Version: 6.00 Build 0)  -->
<svg version="1.1" id="users" xmlns="http://www.w3.org/2000/svg" xmlns:xlink="http://www.w3.org/1999/xlink" x="0px" y="0px"
	 viewBox="0 0 143 143" style="enable-background:new 0 0 143 143;" xml:space="preserve">
<path d="M102.6,100.7c-1.9,0-3.5-1.6-3.5-3.5c0-0.7-0.7-4.8-3.3-6.3c-1.9-0.5-10.4-3.1-14-4.5c-3.7-1.5-7.5-3.1-8.2-6.8
	c-0.7-3.9,0.8-7.1,2.9-11.7c1.1-2.3,2.4-9.6,0-13.4c-0.7-1-1.9-2.4-5.3-2.4s-4.6,1.4-5.3,2.5c-2.4,3.9-1,11.3,0,13.5
	c2.3,4.4,2.5,5.8,2.9,9.8l0.1,0.5c0.6,6.2-8.1,8.4-17.4,10.7c-1.7,0.4-3.4,0.8-4.7,1.2c-4,1.2-3.9,5.9-3.9,6.5
	c0.1,1.9-1.4,3.6-3.3,3.7c-1.9,0.1-3.6-1.3-3.7-3.2c-0.3-3.8,1.3-11.4,8.9-13.7c1.5-0.4,3.2-0.9,4.9-1.3c3.4-0.8,10.2-2.6,12-4
	c-0.3-3.2-0.4-3.7-2.2-7.2c-1.9-3.7-3.8-13.8,0.3-20.3C61.7,48.2,65,45,71.3,45s9.5,3.1,11.2,5.7c4,6.4,2.3,16.3,0.4,20.1
	c-1.7,3.7-2.5,5.5-2.4,7.1c0.6,0.4,1.9,1,4,1.9c3.6,1.5,13.5,4.4,13.6,4.4c0.2,0.1,0.4,0.1,0.6,0.2c6,3,7.4,10.4,7.4,12.7
	C106.1,99.1,104.6,100.7,102.6,100.7z M80.6,78.4L80.6,78.4L80.6,78.4z"/>
<path d="M12.1,85.3c-1.8,0-3.3-1.4-3.5-3.2c-0.3-3.5,1.1-10.6,8.2-12.6c1.3-0.4,2.8-0.8,4.4-1.2c2.9-0.7,8.6-2.2,10.4-3.4
	c-0.3-2.6-0.4-3.2-1.8-6.1c-1.7-3.3-3.4-12.4,0.3-18.4c1.5-2.5,4.5-5.4,10.4-5.4c5.8,0,8.8,2.8,10.3,5.2c3.7,5.8,2.1,14.8,0.4,18.3
	c-1.4,3.1-2.1,4.8-2.1,6.1c0.5,0.3,1.8,1.1,5.5,2.2c1.8,0.6,2.9,2.6,2.3,4.4s-2.6,2.9-4.4,2.3c-5.2-1.7-9.5-3.4-10.2-7.2
	c-0.6-3.6,0.8-6.5,2.6-10.6c1-2,2.1-8.4,0-11.6c-0.5-0.9-1.6-2-4.4-2c-2.8,0-3.9,1.2-4.4,2.1c-2,3.3-1,9.7,0,11.6
	c1.9,4,2.2,5.3,2.6,8.7l0.1,0.6c0.7,5.9-7.3,7.9-15.8,10c-1.5,0.4-2.9,0.7-4.1,1.1c-3.5,1-3.2,5.2-3.2,5.4c0.1,1.9-1.3,3.6-3.2,3.8
	C12.3,85.3,12.2,85.3,12.1,85.3z M31.7,65.8L31.7,65.8L31.7,65.8z"/>
<path d="M130,86.2c-1.9,0-3.5-1.6-3.5-3.5c0-3-1.6-5.8-2.4-6.2c-12.4-3.6-17.1-5.4-18-10.4c-0.6-3.8,0.9-7,2.6-10.7
	c0.9-2,2.1-8.3,0-11.6c-0.5-0.9-1.6-2-4.4-2s-3.8,1.1-4.3,2c-2.1,3.4-0.9,9.8,0,11.7c2.1,4.2,2.2,5.4,2.6,9.4c0.5,5.5-7,7.6-11,8.8
	c-1.9,0.5-3.8-0.6-4.3-2.4c-0.5-1.9,0.6-3.8,2.4-4.3c3.7-1,5.2-1.8,5.8-2.2c-0.3-2.6-0.4-3.2-1.9-6.1c-1.7-3.5-3.4-12.5,0.3-18.5
	c1.5-2.4,4.5-5.3,10.3-5.3s8.8,2.8,10.3,5.2c3.7,5.8,2.1,14.8,0.4,18.3c-1.6,3.4-2.3,5.1-2.1,6.5c0.7,0.9,5.1,2.6,13.2,4.9
	c0.1,0,0.1,0,0.2,0.1c4.6,1.6,7.1,7.8,7.1,12.8C133.5,84.7,131.9,86.2,130,86.2z"/>
</svg>
