<?xml version="1.0" encoding="utf-8"?>
<!-- Generator: Adobe Illustrator 21.0.0, SVG Export Plug-In . SVG Version: 6.00 Build 0)  -->
<svg version="1.1" id="wheels" xmlns="http://www.w3.org/2000/svg" xmlns:xlink="http://www.w3.org/1999/xlink" x="0px" y="0px"
	 viewBox="0 0 143 143" style="enable-background:new 0 0 143 143;" xml:space="preserve">
<path d="M126.5,77.6l-9.4-2.3l-2-4.6l4.4-8.4c0.7-1.4,0.5-3-0.6-4.1l-7.3-7.3c-1.2-1.2-2.9-1.4-4.3-0.5l-7.7,4.8l-4.1-1.7l-2.3-9.4
	c-0.4-1.6-1.8-2.7-3.4-2.7H78.7c-0.8,0-1.6,0.3-2.2,0.8l-0.3-0.6l3.4-6.5c0.7-1.4,0.4-3-0.6-4.1l-5.9-5.9c-1.2-1.2-2.9-1.4-4.3-0.5
	l-5.9,3.7l-2.7-1.1L58.4,20c-0.4-1.6-1.8-2.7-3.4-2.7h-8.9c-1.7,0-3.1,1.2-3.4,2.8l-1.5,7.3l-2.7,1.5L32.1,25
	c-1.4-0.9-3.2-0.6-4.3,0.6l-5.4,5.6c-1.1,1.1-1.3,2.8-0.6,4.1l3.5,6.5l-1,3.3l-6.9,1.4c-1.7,0.4-2.9,1.9-2.8,3.6l0.4,8.6
	c0.1,1.6,1.2,2.9,2.7,3.2l6.3,1.5l1.5,3l-3.1,6c-0.7,1.4-0.4,3,0.7,4.1l5.1,5c0.7,0.7,1.5,1,2.4,1c0.5,0,1-0.1,1.5-0.3l6.1-2.9
	l2.3,1.1c-0.1,0.3-0.1,0.6-0.1,0.9L41.1,92c0.1,1.6,1.2,2.9,2.7,3.2L52,97l2.1,4.5l-4.1,7.9c-0.7,1.4-0.4,3,0.7,4.1l6.4,6.2
	c1.1,1,2.6,1.3,3.9,0.6l7.8-3.7l4.6,2.1l1.8,8.2c0.3,1.5,1.7,2.7,3.3,2.7l10.7,0.5c0.1,0,0.1,0,0.2,0c1.6,0,3.1-1.2,3.4-2.8l1.9-9
	l4.9-1.5l8.4,4.6c1.4,0.7,3,0.5,4.1-0.6l6.9-6.8c1.2-1.1,1.4-2.9,0.6-4.3l-5-8.3l2.3-4l9.4-2c1.6-0.3,2.8-1.8,2.8-3.4V81
	C129.2,79.4,128.1,78,126.5,77.6z M36.8,72.3l-5.3,2.5L30,73.3l2.7-5.3c0.5-1,0.5-2.1,0-3.1l-2.9-6.1c-0.5-1-1.3-1.6-2.4-1.9
	L22,55.7l-0.1-2.9l6-1.2c1.3-0.3,2.3-1.2,2.6-2.4l2.1-6.7c0.3-0.9,0.2-1.9-0.3-2.7l-3-5.6l1.7-1.7l5.7,3.5c1.1,0.7,2.4,0.7,3.5,0.1
	l5.9-3.3c0.9-0.5,1.5-1.3,1.7-2.3l1.3-6h3.3l1.5,6.3c0.3,1.1,1,2,2.1,2.4l6,2.5c1,0.4,2.2,0.3,3.2-0.3l5.1-3.2l2.1,2.1L69.5,40
	c-0.5,0.9-0.5,2-0.1,3l2.6,6.2c0.4,1,1.2,1.6,2.1,1.9l-0.6,2.7l-4.1,2.3l-8.3-5c-1.4-0.8-3.2-0.6-4.3,0.6l-6.7,6.9
	c-1.1,1.1-1.3,2.8-0.6,4.1l4.6,8.4L52.6,76l-4.7,1c-0.3-0.7-0.9-1.3-1.7-1.7L40,72.5C38.8,71.9,37.7,71.9,36.8,72.3z M122.2,89.2
	L114,91c-1,0.2-1.8,0.8-2.3,1.7l-4,7.2c-0.6,1.1-0.6,2.4,0,3.5l4.6,7.7l-3.1,3l-7.4-4.1c-0.8-0.5-1.8-0.6-2.7-0.3l-8.3,2.6
	c-1.2,0.4-2.1,1.4-2.4,2.6l-1.7,8.1l-5-0.2l-1.6-7.2c-0.2-1.1-1-2-1.9-2.4l-7.7-3.6c-0.9-0.4-2-0.4-3,0l-7.1,3.4l-2.8-2.7l3.7-7.1
	c0.5-1,0.5-2.1,0-3.1l-3.6-7.6c-0.5-1-1.3-1.7-2.4-1.9L47.9,89l-0.3-5l8.1-1.8c1.2-0.3,2.2-1.2,2.6-2.4l2.6-8.3
	c0.3-0.9,0.2-1.9-0.3-2.7l-4-7.5l3-3.1l7.7,4.6c1.1,0.7,2.4,0.7,3.5,0.1l7.3-4c0.9-0.5,1.5-1.3,1.7-2.3l1.7-8.2H87l2,8.5
	c0.3,1.1,1,2,2.1,2.4l7.4,3c1,0.4,2.2,0.3,3.2-0.3l6.9-4.3l3.5,3.5l-3.9,7.6c-0.5,0.9-0.5,2-0.1,3l3.3,7.7c0.4,1,1.3,1.8,2.4,2
	l8.4,2.1L122.2,89.2L122.2,89.2z"/>
<path d="M84.9,70.4c-8.3,0-15.1,6.8-15.1,15.1s6.8,15.1,15.1,15.1S100,93.8,100,85.5S93.2,70.4,84.9,70.4z M84.9,93.7
	c-4.5,0-8.1-3.6-8.1-8.1s3.6-8.1,8.1-8.1s8.1,3.6,8.1,8.1S89.4,93.7,84.9,93.7z"/>
</svg>
