<?xml version="1.0" encoding="utf-8"?>
<!-- Generator: Adobe Illustrator 21.0.0, SVG Export Plug-In . SVG Version: 6.00 Build 0)  -->
<svg version="1.1" id="Page_3" xmlns="http://www.w3.org/2000/svg" xmlns:xlink="http://www.w3.org/1999/xlink" x="0px" y="0px"
	 viewBox="0 0 179.9 179.9" style="enable-background:new 0 0 179.9 179.9;" xml:space="preserve">
<style type="text/css">
	.st0{fill:#33ad73;}
	.st1{fill:#ffffff;}
</style>
<g id="e_plein_1_">
	<circle class="st0" cx="90.6" cy="90.8" r="84.9"/>
	<path class="st1" d="M139.8,96.7c0,0,0.2-3.5,0.2-5.1c0-32-18.5-57.6-50.7-57.6c-30,0-52.1,25.3-52.1,56.7
		c0,33.9,24.4,56.7,54.2,56.7c20.6,0,33.9-8.2,44.8-20.4l-10-9.1c-8.8,9.3-19.3,15.3-34.2,15.3c-19.1,0-36-13.2-38.3-36.8
		C53.6,96.7,85.5,127,139.8,96.7z M67.5,81.3c-2.8-2.9-5.5-5.5-7.7-7.7c6.3-10,17.6-16.8,30.3-16.8c13.7,0,25.6,7.7,31.6,19.1
		l-9.2,5.3c-4.2-8.3-12.7-13.9-22.5-13.9C80.1,67.4,71.6,73,67.5,81.3z"/>
</g>
</svg>
