<?xml version="1.0" encoding="utf-8"?>
<!-- Generator: Adobe Illustrator 21.0.0, SVG Export Plug-In . SVG Version: 6.00 Build 0)  -->
<svg version="1.1" id="cb" xmlns="http://www.w3.org/2000/svg" xmlns:xlink="http://www.w3.org/1999/xlink" x="0px" y="0px"
	 viewBox="0 0 431.1 83" style="enable-background:new 0 0 431.1 83;" xml:space="preserve">
<style type="text/css">
	.st0{fill:url(#SVGID_1_);}
	.st1{fill:#FFFFFF;}
	.st2{fill:#2394BC;}
	.st3{fill:#EFC75E;}
	.st4{fill:#F4824A;}
	.st5{fill:#E2574C;}
	.st6{fill:#F4B459;}
</style>
<title>CB</title>
<g id="CB">
	
		<linearGradient id="SVGID_1_" gradientUnits="userSpaceOnUse" x1="55.2" y1="67.6" x2="55.2" y2="147.8" gradientTransform="matrix(1 0 0 1 0 -66)">
		<stop  offset="0" style="stop-color:#049696"/>
		<stop  offset="1" style="stop-color:#207DA9"/>
	</linearGradient>
	<path class="st0" d="M8.6,1.6h93.2c4.8,0,8.6,3.9,8.6,8.6v63c0,4.8-3.9,8.6-8.6,8.6H8.6C3.9,81.8,0,78,0,73.2v-63
		C0,5.4,3.9,1.6,8.6,1.6z"/>
	<path class="st1" d="M103.7,31.5c0-5.3-4.3-9.7-9.6-9.7l0,0H58.9v19.4h35.2C99.4,41.2,103.7,36.9,103.7,31.5
		C103.8,31.5,103.8,31.5,103.7,31.5z"/>
	<path class="st1" d="M103.7,52c0-5.3-4.3-9.7-9.6-9.7l0,0H58.9v19.4h35.2C99.4,61.7,103.7,57.4,103.7,52
		C103.8,52.1,103.8,52,103.7,52z"/>
	<path class="st1" d="M32.4,42.3v-1.1h25.8v-1.6c0-9.7-7.9-17.6-17.6-17.6H24.2c-9.7,0-17.5,7.7-17.6,17.4v0.1v4.7
		c0,9.7,7.9,17.6,17.6,17.6h16.4c9.7,0,17.6-7.9,17.6-17.6v-1.9C58.2,42.3,32.4,42.3,32.4,42.3z"/>
</g>
<g id="Visa">
	<polygon id="polygon9" class="st2" points="194.4,67.7 181.5,67.7 189.6,17.9 202.4,17.9 	"/>
	<path id="path11" class="st2" d="M241,19.2c-3.7-1.4-7.6-2.1-11.5-2.1c-12.7,0-21.6,6.8-21.7,16.4c-0.1,7.1,6.4,11.1,11.3,13.5
		c4.9,2.4,6.7,4,6.7,6.2c0,3.3-4,4.9-7.7,4.9c-4.2,0.1-8.3-0.8-12.1-2.6l-1.7-0.8l-1.8,11.2c4.6,1.8,9.4,2.7,14.3,2.6
		c13.5,0,22.3-6.7,22.4-17c0-5.7-3.4-10-10.8-13.5c-4.5-2.3-7.2-3.8-7.2-6.1c0-2.1,2.3-4.3,7.4-4.3c3.3-0.1,6.6,0.6,9.6,1.9l1.2,0.5
		L241,19.2L241,19.2z"/>
	<path id="path13" class="st2" d="M258.1,50c1.1-2.9,5.1-13.9,5.1-13.9s1.1-2.9,1.7-4.8l0.9,4.3c0,0,2.4,11.9,3,14.4H258.1z
		 M273.9,17.9H264c-3.1,0-5.4,0.9-6.7,4.1l-19.1,45.6h13.5l2.7-7.4h16.5c0.4,1.7,1.5,7.5,1.5,7.5h11.9L273.9,17.9L273.9,17.9
		L273.9,17.9z"/>
	<path id="path15" class="st2" d="M170.8,17.9l-12.6,33.9l-1.4-6.9c-2.3-7.9-9.6-16.6-17.8-20.8l11.5,43.5h13.6l20.2-49.7
		L170.8,17.9L170.8,17.9z"/>
	<path id="path17" class="st3" d="M146.5,17.9h-20.7l-0.2,1c16.1,4.1,26.8,14.1,31.2,26L152.3,22C151.5,18.9,149.3,18.1,146.5,17.9
		L146.5,17.9z"/>
</g>
<g id="MasterCard">
	<rect x="348" y="10.6" class="st4" width="38.1" height="62.2"/>
	<path class="st5" d="M351.9,41.7c0-12.1,5.6-23.6,15.1-31.1c-17.1-13.5-42-10.5-55.5,6.6s-10.5,42.1,6.7,55.6
		c14.4,11.3,34.6,11.3,48.9,0C357.5,65.3,351.9,53.8,351.9,41.7z"/>
	<path class="st6" d="M431.1,41.7c0,21.9-17.8,39.5-39.6,39.5c-8.9,0-17.4-3-24.4-8.5c17.2-13.5,20.2-38.4,6.7-55.6
		c-1.9-2.5-4.2-4.7-6.7-6.7c17.2-13.5,42.1-10.5,55.6,6.7C428.1,24.2,431,32.8,431.1,41.7L431.1,41.7z"/>
</g>
</svg>
